<?xml version="1.0" encoding="utf-8" standalone="no"?>
<!DOCTYPE svg PUBLIC "-//W3C//DTD SVG 1.1//EN"
  "http://www.w3.org/Graphics/SVG/1.1/DTD/svg11.dtd">
<svg xmlns:xlink="http://www.w3.org/1999/xlink" width="568.482656pt" height="569.234531pt" viewBox="0 0 568.482656 569.234531" xmlns="http://www.w3.org/2000/svg" version="1.1">
 <metadata>
  <rdf:RDF xmlns:dc="http://purl.org/dc/elements/1.1/" xmlns:cc="http://creativecommons.org/ns#" xmlns:rdf="http://www.w3.org/1999/02/22-rdf-syntax-ns#">
   <cc:Work>
    <dc:type rdf:resource="http://purl.org/dc/dcmitype/StillImage"/>
    <dc:date>2024-10-15T08:23:32.401345</dc:date>
    <dc:format>image/svg+xml</dc:format>
    <dc:creator>
     <cc:Agent>
      <dc:title>Matplotlib v3.7.2, https://matplotlib.org/</dc:title>
     </cc:Agent>
    </dc:creator>
   </cc:Work>
  </rdf:RDF>
 </metadata>
 <defs>
  <style type="text/css">*{stroke-linejoin: round; stroke-linecap: butt}</style>
 </defs>
 <g id="figure_1">
  <g id="patch_1">
   <path d="M 0 569.234531 
L 568.482656 569.234531 
L 568.482656 0 
L 0 0 
L 0 569.234531 
z
" style="fill: none"/>
  </g>
  <g id="axes_1">
   <g id="patch_2">
    <path d="M 109.922656 510.74 
L 561.282656 510.74 
L 561.282656 7.2 
L 109.922656 7.2 
L 109.922656 510.74 
z
" style="fill: none"/>
   </g>
   <g id="matplotlib.axis_1">
    <g id="xtick_1">
     <g id="line2d_1">
      <path d="M 126.99337 510.74 
L 126.99337 7.2 
" clip-path="url(#pac7a3ffe66)" style="fill: none; stroke: #cccccc; stroke-width: 0.8; stroke-linecap: round"/>
     </g>
     <g id="line2d_2"/>
     <g id="text_1">
      <!-- −0.4 -->
      <g style="fill: #262626" transform="translate(112.187901 524.976719) scale(0.15 -0.15)">
       <defs>
        <path id="ArialMT-2212" d="M 3381 1997 
L 356 1997 
L 356 2522 
L 3381 2522 
L 3381 1997 
z
" transform="scale(0.015625)"/>
        <path id="ArialMT-30" d="M 266 2259 
Q 266 3072 433 3567 
Q 600 4063 929 4331 
Q 1259 4600 1759 4600 
Q 2128 4600 2406 4451 
Q 2684 4303 2865 4023 
Q 3047 3744 3150 3342 
Q 3253 2941 3253 2259 
Q 3253 1453 3087 958 
Q 2922 463 2592 192 
Q 2263 -78 1759 -78 
Q 1097 -78 719 397 
Q 266 969 266 2259 
z
M 844 2259 
Q 844 1131 1108 757 
Q 1372 384 1759 384 
Q 2147 384 2411 759 
Q 2675 1134 2675 2259 
Q 2675 3391 2411 3762 
Q 2147 4134 1753 4134 
Q 1366 4134 1134 3806 
Q 844 3388 844 2259 
z
" transform="scale(0.015625)"/>
        <path id="ArialMT-2e" d="M 581 0 
L 581 641 
L 1222 641 
L 1222 0 
L 581 0 
z
" transform="scale(0.015625)"/>
        <path id="ArialMT-34" d="M 2069 0 
L 2069 1097 
L 81 1097 
L 81 1613 
L 2172 4581 
L 2631 4581 
L 2631 1613 
L 3250 1613 
L 3250 1097 
L 2631 1097 
L 2631 0 
L 2069 0 
z
M 2069 1613 
L 2069 3678 
L 634 1613 
L 2069 1613 
z
" transform="scale(0.015625)"/>
       </defs>
       <use xlink:href="#ArialMT-2212"/>
       <use xlink:href="#ArialMT-30" x="58.398438"/>
       <use xlink:href="#ArialMT-2e" x="114.013672"/>
       <use xlink:href="#ArialMT-34" x="141.796875"/>
      </g>
     </g>
    </g>
    <g id="xtick_2">
     <g id="line2d_3">
      <path d="M 178.663657 510.74 
L 178.663657 7.2 
" clip-path="url(#pac7a3ffe66)" style="fill: none; stroke: #cccccc; stroke-width: 0.8; stroke-linecap: round"/>
     </g>
     <g id="line2d_4"/>
     <g id="text_2">
      <!-- −0.3 -->
      <g style="fill: #262626" transform="translate(163.858188 524.976719) scale(0.15 -0.15)">
       <defs>
        <path id="ArialMT-33" d="M 269 1209 
L 831 1284 
Q 928 806 1161 595 
Q 1394 384 1728 384 
Q 2125 384 2398 659 
Q 2672 934 2672 1341 
Q 2672 1728 2419 1979 
Q 2166 2231 1775 2231 
Q 1616 2231 1378 2169 
L 1441 2663 
Q 1497 2656 1531 2656 
Q 1891 2656 2178 2843 
Q 2466 3031 2466 3422 
Q 2466 3731 2256 3934 
Q 2047 4138 1716 4138 
Q 1388 4138 1169 3931 
Q 950 3725 888 3313 
L 325 3413 
Q 428 3978 793 4289 
Q 1159 4600 1703 4600 
Q 2078 4600 2393 4439 
Q 2709 4278 2876 4000 
Q 3044 3722 3044 3409 
Q 3044 3113 2884 2869 
Q 2725 2625 2413 2481 
Q 2819 2388 3044 2092 
Q 3269 1797 3269 1353 
Q 3269 753 2831 336 
Q 2394 -81 1725 -81 
Q 1122 -81 723 278 
Q 325 638 269 1209 
z
" transform="scale(0.015625)"/>
       </defs>
       <use xlink:href="#ArialMT-2212"/>
       <use xlink:href="#ArialMT-30" x="58.398438"/>
       <use xlink:href="#ArialMT-2e" x="114.013672"/>
       <use xlink:href="#ArialMT-33" x="141.796875"/>
      </g>
     </g>
    </g>
    <g id="xtick_3">
     <g id="line2d_5">
      <path d="M 230.333943 510.74 
L 230.333943 7.2 
" clip-path="url(#pac7a3ffe66)" style="fill: none; stroke: #cccccc; stroke-width: 0.8; stroke-linecap: round"/>
     </g>
     <g id="line2d_6"/>
     <g id="text_3">
      <!-- −0.2 -->
      <g style="fill: #262626" transform="translate(215.528475 524.976719) scale(0.15 -0.15)">
       <defs>
        <path id="ArialMT-32" d="M 3222 541 
L 3222 0 
L 194 0 
Q 188 203 259 391 
Q 375 700 629 1000 
Q 884 1300 1366 1694 
Q 2113 2306 2375 2664 
Q 2638 3022 2638 3341 
Q 2638 3675 2398 3904 
Q 2159 4134 1775 4134 
Q 1369 4134 1125 3890 
Q 881 3647 878 3216 
L 300 3275 
Q 359 3922 746 4261 
Q 1134 4600 1788 4600 
Q 2447 4600 2831 4234 
Q 3216 3869 3216 3328 
Q 3216 3053 3103 2787 
Q 2991 2522 2730 2228 
Q 2469 1934 1863 1422 
Q 1356 997 1212 845 
Q 1069 694 975 541 
L 3222 541 
z
" transform="scale(0.015625)"/>
       </defs>
       <use xlink:href="#ArialMT-2212"/>
       <use xlink:href="#ArialMT-30" x="58.398438"/>
       <use xlink:href="#ArialMT-2e" x="114.013672"/>
       <use xlink:href="#ArialMT-32" x="141.796875"/>
      </g>
     </g>
    </g>
    <g id="xtick_4">
     <g id="line2d_7">
      <path d="M 282.00423 510.74 
L 282.00423 7.2 
" clip-path="url(#pac7a3ffe66)" style="fill: none; stroke: #cccccc; stroke-width: 0.8; stroke-linecap: round"/>
     </g>
     <g id="line2d_8"/>
     <g id="text_4">
      <!-- −0.1 -->
      <g style="fill: #262626" transform="translate(267.198761 524.976719) scale(0.15 -0.15)">
       <defs>
        <path id="ArialMT-31" d="M 2384 0 
L 1822 0 
L 1822 3584 
Q 1619 3391 1289 3197 
Q 959 3003 697 2906 
L 697 3450 
Q 1169 3672 1522 3987 
Q 1875 4303 2022 4600 
L 2384 4600 
L 2384 0 
z
" transform="scale(0.015625)"/>
       </defs>
       <use xlink:href="#ArialMT-2212"/>
       <use xlink:href="#ArialMT-30" x="58.398438"/>
       <use xlink:href="#ArialMT-2e" x="114.013672"/>
       <use xlink:href="#ArialMT-31" x="141.796875"/>
      </g>
     </g>
    </g>
    <g id="xtick_5">
     <g id="line2d_9">
      <path d="M 333.674517 510.74 
L 333.674517 7.2 
" clip-path="url(#pac7a3ffe66)" style="fill: none; stroke: #cccccc; stroke-width: 0.8; stroke-linecap: round"/>
     </g>
     <g id="line2d_10"/>
     <g id="text_5">
      <!-- 0.0 -->
      <g style="fill: #262626" transform="translate(323.249517 524.976719) scale(0.15 -0.15)">
       <use xlink:href="#ArialMT-30"/>
       <use xlink:href="#ArialMT-2e" x="55.615234"/>
       <use xlink:href="#ArialMT-30" x="83.398438"/>
      </g>
     </g>
    </g>
    <g id="xtick_6">
     <g id="line2d_11">
      <path d="M 385.344803 510.74 
L 385.344803 7.2 
" clip-path="url(#pac7a3ffe66)" style="fill: none; stroke: #cccccc; stroke-width: 0.8; stroke-linecap: round"/>
     </g>
     <g id="line2d_12"/>
     <g id="text_6">
      <!-- 0.1 -->
      <g style="fill: #262626" transform="translate(374.919803 524.976719) scale(0.15 -0.15)">
       <use xlink:href="#ArialMT-30"/>
       <use xlink:href="#ArialMT-2e" x="55.615234"/>
       <use xlink:href="#ArialMT-31" x="83.398438"/>
      </g>
     </g>
    </g>
    <g id="xtick_7">
     <g id="line2d_13">
      <path d="M 437.01509 510.74 
L 437.01509 7.2 
" clip-path="url(#pac7a3ffe66)" style="fill: none; stroke: #cccccc; stroke-width: 0.8; stroke-linecap: round"/>
     </g>
     <g id="line2d_14"/>
     <g id="text_7">
      <!-- 0.2 -->
      <g style="fill: #262626" transform="translate(426.59009 524.976719) scale(0.15 -0.15)">
       <use xlink:href="#ArialMT-30"/>
       <use xlink:href="#ArialMT-2e" x="55.615234"/>
       <use xlink:href="#ArialMT-32" x="83.398438"/>
      </g>
     </g>
    </g>
    <g id="xtick_8">
     <g id="line2d_15">
      <path d="M 488.685376 510.74 
L 488.685376 7.2 
" clip-path="url(#pac7a3ffe66)" style="fill: none; stroke: #cccccc; stroke-width: 0.8; stroke-linecap: round"/>
     </g>
     <g id="line2d_16"/>
     <g id="text_8">
      <!-- 0.3 -->
      <g style="fill: #262626" transform="translate(478.260376 524.976719) scale(0.15 -0.15)">
       <use xlink:href="#ArialMT-30"/>
       <use xlink:href="#ArialMT-2e" x="55.615234"/>
       <use xlink:href="#ArialMT-33" x="83.398438"/>
      </g>
     </g>
    </g>
    <g id="xtick_9">
     <g id="line2d_17">
      <path d="M 540.355663 510.74 
L 540.355663 7.2 
" clip-path="url(#pac7a3ffe66)" style="fill: none; stroke: #cccccc; stroke-width: 0.8; stroke-linecap: round"/>
     </g>
     <g id="line2d_18"/>
     <g id="text_9">
      <!-- 0.4 -->
      <g style="fill: #262626" transform="translate(529.930663 524.976719) scale(0.15 -0.15)">
       <use xlink:href="#ArialMT-30"/>
       <use xlink:href="#ArialMT-2e" x="55.615234"/>
       <use xlink:href="#ArialMT-34" x="83.398438"/>
      </g>
     </g>
    </g>
    <g id="text_10">
     <!-- Mean Crystallized Cognition Prediction (unemployment) -->
     <g style="fill: #262626" transform="translate(150.530781 558.8775) scale(0.15 -0.15)">
      <defs>
       <path id="ArialMT-4d" d="M 475 0 
L 475 4581 
L 1388 4581 
L 2472 1338 
Q 2622 884 2691 659 
Q 2769 909 2934 1394 
L 4031 4581 
L 4847 4581 
L 4847 0 
L 4263 0 
L 4263 3834 
L 2931 0 
L 2384 0 
L 1059 3900 
L 1059 0 
L 475 0 
z
" transform="scale(0.015625)"/>
       <path id="ArialMT-65" d="M 2694 1069 
L 3275 997 
Q 3138 488 2766 206 
Q 2394 -75 1816 -75 
Q 1088 -75 661 373 
Q 234 822 234 1631 
Q 234 2469 665 2931 
Q 1097 3394 1784 3394 
Q 2450 3394 2872 2941 
Q 3294 2488 3294 1666 
Q 3294 1616 3291 1516 
L 816 1516 
Q 847 969 1125 678 
Q 1403 388 1819 388 
Q 2128 388 2347 550 
Q 2566 713 2694 1069 
z
M 847 1978 
L 2700 1978 
Q 2663 2397 2488 2606 
Q 2219 2931 1791 2931 
Q 1403 2931 1139 2672 
Q 875 2413 847 1978 
z
" transform="scale(0.015625)"/>
       <path id="ArialMT-61" d="M 2588 409 
Q 2275 144 1986 34 
Q 1697 -75 1366 -75 
Q 819 -75 525 192 
Q 231 459 231 875 
Q 231 1119 342 1320 
Q 453 1522 633 1644 
Q 813 1766 1038 1828 
Q 1203 1872 1538 1913 
Q 2219 1994 2541 2106 
Q 2544 2222 2544 2253 
Q 2544 2597 2384 2738 
Q 2169 2928 1744 2928 
Q 1347 2928 1158 2789 
Q 969 2650 878 2297 
L 328 2372 
Q 403 2725 575 2942 
Q 747 3159 1072 3276 
Q 1397 3394 1825 3394 
Q 2250 3394 2515 3294 
Q 2781 3194 2906 3042 
Q 3031 2891 3081 2659 
Q 3109 2516 3109 2141 
L 3109 1391 
Q 3109 606 3145 398 
Q 3181 191 3288 0 
L 2700 0 
Q 2613 175 2588 409 
z
M 2541 1666 
Q 2234 1541 1622 1453 
Q 1275 1403 1131 1340 
Q 988 1278 909 1158 
Q 831 1038 831 891 
Q 831 666 1001 516 
Q 1172 366 1500 366 
Q 1825 366 2078 508 
Q 2331 650 2450 897 
Q 2541 1088 2541 1459 
L 2541 1666 
z
" transform="scale(0.015625)"/>
       <path id="ArialMT-6e" d="M 422 0 
L 422 3319 
L 928 3319 
L 928 2847 
Q 1294 3394 1984 3394 
Q 2284 3394 2536 3286 
Q 2788 3178 2913 3003 
Q 3038 2828 3088 2588 
Q 3119 2431 3119 2041 
L 3119 0 
L 2556 0 
L 2556 2019 
Q 2556 2363 2490 2533 
Q 2425 2703 2258 2804 
Q 2091 2906 1866 2906 
Q 1506 2906 1245 2678 
Q 984 2450 984 1813 
L 984 0 
L 422 0 
z
" transform="scale(0.015625)"/>
       <path id="ArialMT-20" transform="scale(0.015625)"/>
       <path id="ArialMT-43" d="M 3763 1606 
L 4369 1453 
Q 4178 706 3683 314 
Q 3188 -78 2472 -78 
Q 1731 -78 1267 223 
Q 803 525 561 1097 
Q 319 1669 319 2325 
Q 319 3041 592 3573 
Q 866 4106 1370 4382 
Q 1875 4659 2481 4659 
Q 3169 4659 3637 4309 
Q 4106 3959 4291 3325 
L 3694 3184 
Q 3534 3684 3231 3912 
Q 2928 4141 2469 4141 
Q 1941 4141 1586 3887 
Q 1231 3634 1087 3207 
Q 944 2781 944 2328 
Q 944 1744 1114 1308 
Q 1284 872 1643 656 
Q 2003 441 2422 441 
Q 2931 441 3284 734 
Q 3638 1028 3763 1606 
z
" transform="scale(0.015625)"/>
       <path id="ArialMT-72" d="M 416 0 
L 416 3319 
L 922 3319 
L 922 2816 
Q 1116 3169 1280 3281 
Q 1444 3394 1641 3394 
Q 1925 3394 2219 3213 
L 2025 2691 
Q 1819 2813 1613 2813 
Q 1428 2813 1281 2702 
Q 1134 2591 1072 2394 
Q 978 2094 978 1738 
L 978 0 
L 416 0 
z
" transform="scale(0.015625)"/>
       <path id="ArialMT-79" d="M 397 -1278 
L 334 -750 
Q 519 -800 656 -800 
Q 844 -800 956 -737 
Q 1069 -675 1141 -563 
Q 1194 -478 1313 -144 
Q 1328 -97 1363 -6 
L 103 3319 
L 709 3319 
L 1400 1397 
Q 1534 1031 1641 628 
Q 1738 1016 1872 1384 
L 2581 3319 
L 3144 3319 
L 1881 -56 
Q 1678 -603 1566 -809 
Q 1416 -1088 1222 -1217 
Q 1028 -1347 759 -1347 
Q 597 -1347 397 -1278 
z
" transform="scale(0.015625)"/>
       <path id="ArialMT-73" d="M 197 991 
L 753 1078 
Q 800 744 1014 566 
Q 1228 388 1613 388 
Q 2000 388 2187 545 
Q 2375 703 2375 916 
Q 2375 1106 2209 1216 
Q 2094 1291 1634 1406 
Q 1016 1563 777 1677 
Q 538 1791 414 1992 
Q 291 2194 291 2438 
Q 291 2659 392 2848 
Q 494 3038 669 3163 
Q 800 3259 1026 3326 
Q 1253 3394 1513 3394 
Q 1903 3394 2198 3281 
Q 2494 3169 2634 2976 
Q 2775 2784 2828 2463 
L 2278 2388 
Q 2241 2644 2061 2787 
Q 1881 2931 1553 2931 
Q 1166 2931 1000 2803 
Q 834 2675 834 2503 
Q 834 2394 903 2306 
Q 972 2216 1119 2156 
Q 1203 2125 1616 2013 
Q 2213 1853 2448 1751 
Q 2684 1650 2818 1456 
Q 2953 1263 2953 975 
Q 2953 694 2789 445 
Q 2625 197 2315 61 
Q 2006 -75 1616 -75 
Q 969 -75 630 194 
Q 291 463 197 991 
z
" transform="scale(0.015625)"/>
       <path id="ArialMT-74" d="M 1650 503 
L 1731 6 
Q 1494 -44 1306 -44 
Q 1000 -44 831 53 
Q 663 150 594 308 
Q 525 466 525 972 
L 525 2881 
L 113 2881 
L 113 3319 
L 525 3319 
L 525 4141 
L 1084 4478 
L 1084 3319 
L 1650 3319 
L 1650 2881 
L 1084 2881 
L 1084 941 
Q 1084 700 1114 631 
Q 1144 563 1211 522 
Q 1278 481 1403 481 
Q 1497 481 1650 503 
z
" transform="scale(0.015625)"/>
       <path id="ArialMT-6c" d="M 409 0 
L 409 4581 
L 972 4581 
L 972 0 
L 409 0 
z
" transform="scale(0.015625)"/>
       <path id="ArialMT-69" d="M 425 3934 
L 425 4581 
L 988 4581 
L 988 3934 
L 425 3934 
z
M 425 0 
L 425 3319 
L 988 3319 
L 988 0 
L 425 0 
z
" transform="scale(0.015625)"/>
       <path id="ArialMT-7a" d="M 125 0 
L 125 456 
L 2238 2881 
Q 1878 2863 1603 2863 
L 250 2863 
L 250 3319 
L 2963 3319 
L 2963 2947 
L 1166 841 
L 819 456 
Q 1197 484 1528 484 
L 3063 484 
L 3063 0 
L 125 0 
z
" transform="scale(0.015625)"/>
       <path id="ArialMT-64" d="M 2575 0 
L 2575 419 
Q 2259 -75 1647 -75 
Q 1250 -75 917 144 
Q 584 363 401 755 
Q 219 1147 219 1656 
Q 219 2153 384 2558 
Q 550 2963 881 3178 
Q 1213 3394 1622 3394 
Q 1922 3394 2156 3267 
Q 2391 3141 2538 2938 
L 2538 4581 
L 3097 4581 
L 3097 0 
L 2575 0 
z
M 797 1656 
Q 797 1019 1065 703 
Q 1334 388 1700 388 
Q 2069 388 2326 689 
Q 2584 991 2584 1609 
Q 2584 2291 2321 2609 
Q 2059 2928 1675 2928 
Q 1300 2928 1048 2622 
Q 797 2316 797 1656 
z
" transform="scale(0.015625)"/>
       <path id="ArialMT-6f" d="M 213 1659 
Q 213 2581 725 3025 
Q 1153 3394 1769 3394 
Q 2453 3394 2887 2945 
Q 3322 2497 3322 1706 
Q 3322 1066 3130 698 
Q 2938 331 2570 128 
Q 2203 -75 1769 -75 
Q 1072 -75 642 372 
Q 213 819 213 1659 
z
M 791 1659 
Q 791 1022 1069 705 
Q 1347 388 1769 388 
Q 2188 388 2466 706 
Q 2744 1025 2744 1678 
Q 2744 2294 2464 2611 
Q 2184 2928 1769 2928 
Q 1347 2928 1069 2612 
Q 791 2297 791 1659 
z
" transform="scale(0.015625)"/>
       <path id="ArialMT-67" d="M 319 -275 
L 866 -356 
Q 900 -609 1056 -725 
Q 1266 -881 1628 -881 
Q 2019 -881 2231 -725 
Q 2444 -569 2519 -288 
Q 2563 -116 2559 434 
Q 2191 0 1641 0 
Q 956 0 581 494 
Q 206 988 206 1678 
Q 206 2153 378 2554 
Q 550 2956 876 3175 
Q 1203 3394 1644 3394 
Q 2231 3394 2613 2919 
L 2613 3319 
L 3131 3319 
L 3131 450 
Q 3131 -325 2973 -648 
Q 2816 -972 2473 -1159 
Q 2131 -1347 1631 -1347 
Q 1038 -1347 672 -1080 
Q 306 -813 319 -275 
z
M 784 1719 
Q 784 1066 1043 766 
Q 1303 466 1694 466 
Q 2081 466 2343 764 
Q 2606 1063 2606 1700 
Q 2606 2309 2336 2618 
Q 2066 2928 1684 2928 
Q 1309 2928 1046 2623 
Q 784 2319 784 1719 
z
" transform="scale(0.015625)"/>
       <path id="ArialMT-50" d="M 494 0 
L 494 4581 
L 2222 4581 
Q 2678 4581 2919 4538 
Q 3256 4481 3484 4323 
Q 3713 4166 3852 3881 
Q 3991 3597 3991 3256 
Q 3991 2672 3619 2267 
Q 3247 1863 2275 1863 
L 1100 1863 
L 1100 0 
L 494 0 
z
M 1100 2403 
L 2284 2403 
Q 2872 2403 3119 2622 
Q 3366 2841 3366 3238 
Q 3366 3525 3220 3729 
Q 3075 3934 2838 4000 
Q 2684 4041 2272 4041 
L 1100 4041 
L 1100 2403 
z
" transform="scale(0.015625)"/>
       <path id="ArialMT-63" d="M 2588 1216 
L 3141 1144 
Q 3050 572 2676 248 
Q 2303 -75 1759 -75 
Q 1078 -75 664 370 
Q 250 816 250 1647 
Q 250 2184 428 2587 
Q 606 2991 970 3192 
Q 1334 3394 1763 3394 
Q 2303 3394 2647 3120 
Q 2991 2847 3088 2344 
L 2541 2259 
Q 2463 2594 2264 2762 
Q 2066 2931 1784 2931 
Q 1359 2931 1093 2626 
Q 828 2322 828 1663 
Q 828 994 1084 691 
Q 1341 388 1753 388 
Q 2084 388 2306 591 
Q 2528 794 2588 1216 
z
" transform="scale(0.015625)"/>
       <path id="ArialMT-28" d="M 1497 -1347 
Q 1031 -759 709 28 
Q 388 816 388 1659 
Q 388 2403 628 3084 
Q 909 3875 1497 4659 
L 1900 4659 
Q 1522 4009 1400 3731 
Q 1209 3300 1100 2831 
Q 966 2247 966 1656 
Q 966 153 1900 -1347 
L 1497 -1347 
z
" transform="scale(0.015625)"/>
       <path id="ArialMT-75" d="M 2597 0 
L 2597 488 
Q 2209 -75 1544 -75 
Q 1250 -75 995 37 
Q 741 150 617 320 
Q 494 491 444 738 
Q 409 903 409 1263 
L 409 3319 
L 972 3319 
L 972 1478 
Q 972 1038 1006 884 
Q 1059 663 1231 536 
Q 1403 409 1656 409 
Q 1909 409 2131 539 
Q 2353 669 2445 892 
Q 2538 1116 2538 1541 
L 2538 3319 
L 3100 3319 
L 3100 0 
L 2597 0 
z
" transform="scale(0.015625)"/>
       <path id="ArialMT-6d" d="M 422 0 
L 422 3319 
L 925 3319 
L 925 2853 
Q 1081 3097 1340 3245 
Q 1600 3394 1931 3394 
Q 2300 3394 2536 3241 
Q 2772 3088 2869 2813 
Q 3263 3394 3894 3394 
Q 4388 3394 4653 3120 
Q 4919 2847 4919 2278 
L 4919 0 
L 4359 0 
L 4359 2091 
Q 4359 2428 4304 2576 
Q 4250 2725 4106 2815 
Q 3963 2906 3769 2906 
Q 3419 2906 3187 2673 
Q 2956 2441 2956 1928 
L 2956 0 
L 2394 0 
L 2394 2156 
Q 2394 2531 2256 2718 
Q 2119 2906 1806 2906 
Q 1569 2906 1367 2781 
Q 1166 2656 1075 2415 
Q 984 2175 984 1722 
L 984 0 
L 422 0 
z
" transform="scale(0.015625)"/>
       <path id="ArialMT-70" d="M 422 -1272 
L 422 3319 
L 934 3319 
L 934 2888 
Q 1116 3141 1344 3267 
Q 1572 3394 1897 3394 
Q 2322 3394 2647 3175 
Q 2972 2956 3137 2557 
Q 3303 2159 3303 1684 
Q 3303 1175 3120 767 
Q 2938 359 2589 142 
Q 2241 -75 1856 -75 
Q 1575 -75 1351 44 
Q 1128 163 984 344 
L 984 -1272 
L 422 -1272 
z
M 931 1641 
Q 931 1000 1190 694 
Q 1450 388 1819 388 
Q 2194 388 2461 705 
Q 2728 1022 2728 1688 
Q 2728 2322 2467 2637 
Q 2206 2953 1844 2953 
Q 1484 2953 1207 2617 
Q 931 2281 931 1641 
z
" transform="scale(0.015625)"/>
       <path id="ArialMT-29" d="M 791 -1347 
L 388 -1347 
Q 1322 153 1322 1656 
Q 1322 2244 1188 2822 
Q 1081 3291 891 3722 
Q 769 4003 388 4659 
L 791 4659 
Q 1378 3875 1659 3084 
Q 1900 2403 1900 1659 
Q 1900 816 1576 28 
Q 1253 -759 791 -1347 
z
" transform="scale(0.015625)"/>
      </defs>
      <use xlink:href="#ArialMT-4d"/>
      <use xlink:href="#ArialMT-65" x="83.300781"/>
      <use xlink:href="#ArialMT-61" x="138.916016"/>
      <use xlink:href="#ArialMT-6e" x="194.53125"/>
      <use xlink:href="#ArialMT-20" x="250.146484"/>
      <use xlink:href="#ArialMT-43" x="277.929688"/>
      <use xlink:href="#ArialMT-72" x="350.146484"/>
      <use xlink:href="#ArialMT-79" x="383.447266"/>
      <use xlink:href="#ArialMT-73" x="433.447266"/>
      <use xlink:href="#ArialMT-74" x="483.447266"/>
      <use xlink:href="#ArialMT-61" x="511.230469"/>
      <use xlink:href="#ArialMT-6c" x="566.845703"/>
      <use xlink:href="#ArialMT-6c" x="589.0625"/>
      <use xlink:href="#ArialMT-69" x="611.279297"/>
      <use xlink:href="#ArialMT-7a" x="633.496094"/>
      <use xlink:href="#ArialMT-65" x="683.496094"/>
      <use xlink:href="#ArialMT-64" x="739.111328"/>
      <use xlink:href="#ArialMT-20" x="794.726562"/>
      <use xlink:href="#ArialMT-43" x="822.509766"/>
      <use xlink:href="#ArialMT-6f" x="894.726562"/>
      <use xlink:href="#ArialMT-67" x="950.341797"/>
      <use xlink:href="#ArialMT-6e" x="1005.957031"/>
      <use xlink:href="#ArialMT-69" x="1061.572266"/>
      <use xlink:href="#ArialMT-74" x="1083.789062"/>
      <use xlink:href="#ArialMT-69" x="1111.572266"/>
      <use xlink:href="#ArialMT-6f" x="1133.789062"/>
      <use xlink:href="#ArialMT-6e" x="1189.404297"/>
      <use xlink:href="#ArialMT-20" x="1245.019531"/>
      <use xlink:href="#ArialMT-50" x="1272.802734"/>
      <use xlink:href="#ArialMT-72" x="1339.501953"/>
      <use xlink:href="#ArialMT-65" x="1372.802734"/>
      <use xlink:href="#ArialMT-64" x="1428.417969"/>
      <use xlink:href="#ArialMT-69" x="1484.033203"/>
      <use xlink:href="#ArialMT-63" x="1506.25"/>
      <use xlink:href="#ArialMT-74" x="1556.25"/>
      <use xlink:href="#ArialMT-69" x="1584.033203"/>
      <use xlink:href="#ArialMT-6f" x="1606.25"/>
      <use xlink:href="#ArialMT-6e" x="1661.865234"/>
      <use xlink:href="#ArialMT-20" x="1717.480469"/>
      <use xlink:href="#ArialMT-28" x="1745.263672"/>
      <use xlink:href="#ArialMT-75" x="1778.564453"/>
      <use xlink:href="#ArialMT-6e" x="1834.179688"/>
      <use xlink:href="#ArialMT-65" x="1889.794922"/>
      <use xlink:href="#ArialMT-6d" x="1945.410156"/>
      <use xlink:href="#ArialMT-70" x="2028.710938"/>
      <use xlink:href="#ArialMT-6c" x="2084.326172"/>
      <use xlink:href="#ArialMT-6f" x="2106.542969"/>
      <use xlink:href="#ArialMT-79" x="2162.158203"/>
      <use xlink:href="#ArialMT-6d" x="2212.158203"/>
      <use xlink:href="#ArialMT-65" x="2295.458984"/>
      <use xlink:href="#ArialMT-6e" x="2351.074219"/>
      <use xlink:href="#ArialMT-74" x="2406.689453"/>
      <use xlink:href="#ArialMT-29" x="2434.472656"/>
     </g>
    </g>
   </g>
   <g id="matplotlib.axis_2">
    <g id="ytick_1">
     <g id="line2d_19">
      <path d="M 109.922656 480.916006 
L 561.282656 480.916006 
" clip-path="url(#pac7a3ffe66)" style="fill: none; stroke: #cccccc; stroke-width: 0.8; stroke-linecap: round"/>
     </g>
     <g id="line2d_20"/>
     <g id="text_11">
      <!-- California -->
      <g style="fill: #262626" transform="translate(43.064063 486.284365) scale(0.15 -0.15)">
       <defs>
        <path id="ArialMT-66" d="M 556 0 
L 556 2881 
L 59 2881 
L 59 3319 
L 556 3319 
L 556 3672 
Q 556 4006 616 4169 
Q 697 4388 901 4523 
Q 1106 4659 1475 4659 
Q 1713 4659 2000 4603 
L 1916 4113 
Q 1741 4144 1584 4144 
Q 1328 4144 1222 4034 
Q 1116 3925 1116 3625 
L 1116 3319 
L 1763 3319 
L 1763 2881 
L 1116 2881 
L 1116 0 
L 556 0 
z
" transform="scale(0.015625)"/>
       </defs>
       <use xlink:href="#ArialMT-43"/>
       <use xlink:href="#ArialMT-61" x="72.216797"/>
       <use xlink:href="#ArialMT-6c" x="127.832031"/>
       <use xlink:href="#ArialMT-69" x="150.048828"/>
       <use xlink:href="#ArialMT-66" x="172.265625"/>
       <use xlink:href="#ArialMT-6f" x="200.048828"/>
       <use xlink:href="#ArialMT-72" x="255.664062"/>
       <use xlink:href="#ArialMT-6e" x="288.964844"/>
       <use xlink:href="#ArialMT-69" x="344.580078"/>
       <use xlink:href="#ArialMT-61" x="366.796875"/>
      </g>
     </g>
    </g>
    <g id="ytick_2">
     <g id="line2d_21">
      <path d="M 109.922656 453.172755 
L 561.282656 453.172755 
" clip-path="url(#pac7a3ffe66)" style="fill: none; stroke: #cccccc; stroke-width: 0.8; stroke-linecap: round"/>
     </g>
     <g id="line2d_22"/>
     <g id="text_12">
      <!-- Colorado -->
      <g style="fill: #262626" transform="translate(45.555469 458.541114) scale(0.15 -0.15)">
       <use xlink:href="#ArialMT-43"/>
       <use xlink:href="#ArialMT-6f" x="72.216797"/>
       <use xlink:href="#ArialMT-6c" x="127.832031"/>
       <use xlink:href="#ArialMT-6f" x="150.048828"/>
       <use xlink:href="#ArialMT-72" x="205.664062"/>
       <use xlink:href="#ArialMT-61" x="238.964844"/>
       <use xlink:href="#ArialMT-64" x="294.580078"/>
       <use xlink:href="#ArialMT-6f" x="350.195312"/>
      </g>
     </g>
    </g>
    <g id="ytick_3">
     <g id="line2d_23">
      <path d="M 109.922656 425.429504 
L 561.282656 425.429504 
" clip-path="url(#pac7a3ffe66)" style="fill: none; stroke: #cccccc; stroke-width: 0.8; stroke-linecap: round"/>
     </g>
     <g id="line2d_24"/>
     <g id="text_13">
      <!-- Connecticut -->
      <g style="fill: #262626" transform="translate(27.215625 430.797864) scale(0.15 -0.15)">
       <use xlink:href="#ArialMT-43"/>
       <use xlink:href="#ArialMT-6f" x="72.216797"/>
       <use xlink:href="#ArialMT-6e" x="127.832031"/>
       <use xlink:href="#ArialMT-6e" x="183.447266"/>
       <use xlink:href="#ArialMT-65" x="239.0625"/>
       <use xlink:href="#ArialMT-63" x="294.677734"/>
       <use xlink:href="#ArialMT-74" x="344.677734"/>
       <use xlink:href="#ArialMT-69" x="372.460938"/>
       <use xlink:href="#ArialMT-63" x="394.677734"/>
       <use xlink:href="#ArialMT-75" x="444.677734"/>
       <use xlink:href="#ArialMT-74" x="500.292969"/>
      </g>
     </g>
    </g>
    <g id="ytick_4">
     <g id="line2d_25">
      <path d="M 109.922656 397.686253 
L 561.282656 397.686253 
" clip-path="url(#pac7a3ffe66)" style="fill: none; stroke: #cccccc; stroke-width: 0.8; stroke-linecap: round"/>
     </g>
     <g id="line2d_26"/>
     <g id="text_14">
      <!-- Florida -->
      <g style="fill: #262626" transform="translate(60.576563 403.054613) scale(0.15 -0.15)">
       <defs>
        <path id="ArialMT-46" d="M 525 0 
L 525 4581 
L 3616 4581 
L 3616 4041 
L 1131 4041 
L 1131 2622 
L 3281 2622 
L 3281 2081 
L 1131 2081 
L 1131 0 
L 525 0 
z
" transform="scale(0.015625)"/>
       </defs>
       <use xlink:href="#ArialMT-46"/>
       <use xlink:href="#ArialMT-6c" x="61.083984"/>
       <use xlink:href="#ArialMT-6f" x="83.300781"/>
       <use xlink:href="#ArialMT-72" x="138.916016"/>
       <use xlink:href="#ArialMT-69" x="172.216797"/>
       <use xlink:href="#ArialMT-64" x="194.433594"/>
       <use xlink:href="#ArialMT-61" x="250.048828"/>
      </g>
     </g>
    </g>
    <g id="ytick_5">
     <g id="line2d_27">
      <path d="M 109.922656 369.943003 
L 561.282656 369.943003 
" clip-path="url(#pac7a3ffe66)" style="fill: none; stroke: #cccccc; stroke-width: 0.8; stroke-linecap: round"/>
     </g>
     <g id="line2d_28"/>
     <g id="text_15">
      <!-- Maryland -->
      <g style="fill: #262626" transform="translate(44.735156 375.311362) scale(0.15 -0.15)">
       <use xlink:href="#ArialMT-4d"/>
       <use xlink:href="#ArialMT-61" x="83.300781"/>
       <use xlink:href="#ArialMT-72" x="138.916016"/>
       <use xlink:href="#ArialMT-79" x="172.216797"/>
       <use xlink:href="#ArialMT-6c" x="222.216797"/>
       <use xlink:href="#ArialMT-61" x="244.433594"/>
       <use xlink:href="#ArialMT-6e" x="300.048828"/>
       <use xlink:href="#ArialMT-64" x="355.664062"/>
      </g>
     </g>
    </g>
    <g id="ytick_6">
     <g id="line2d_29">
      <path d="M 109.922656 342.199752 
L 561.282656 342.199752 
" clip-path="url(#pac7a3ffe66)" style="fill: none; stroke: #cccccc; stroke-width: 0.8; stroke-linecap: round"/>
     </g>
     <g id="line2d_30"/>
     <g id="text_16">
      <!-- Michigan -->
      <g style="fill: #262626" transform="translate(46.396875 347.568111) scale(0.15 -0.15)">
       <defs>
        <path id="ArialMT-68" d="M 422 0 
L 422 4581 
L 984 4581 
L 984 2938 
Q 1378 3394 1978 3394 
Q 2347 3394 2619 3248 
Q 2891 3103 3008 2847 
Q 3125 2591 3125 2103 
L 3125 0 
L 2563 0 
L 2563 2103 
Q 2563 2525 2380 2717 
Q 2197 2909 1863 2909 
Q 1613 2909 1392 2779 
Q 1172 2650 1078 2428 
Q 984 2206 984 1816 
L 984 0 
L 422 0 
z
" transform="scale(0.015625)"/>
       </defs>
       <use xlink:href="#ArialMT-4d"/>
       <use xlink:href="#ArialMT-69" x="83.300781"/>
       <use xlink:href="#ArialMT-63" x="105.517578"/>
       <use xlink:href="#ArialMT-68" x="155.517578"/>
       <use xlink:href="#ArialMT-69" x="211.132812"/>
       <use xlink:href="#ArialMT-67" x="233.349609"/>
       <use xlink:href="#ArialMT-61" x="288.964844"/>
       <use xlink:href="#ArialMT-6e" x="344.580078"/>
      </g>
     </g>
    </g>
    <g id="ytick_7">
     <g id="line2d_31">
      <path d="M 109.922656 314.456501 
L 561.282656 314.456501 
" clip-path="url(#pac7a3ffe66)" style="fill: none; stroke: #cccccc; stroke-width: 0.8; stroke-linecap: round"/>
     </g>
     <g id="line2d_32"/>
     <g id="text_17">
      <!-- Minnesota -->
      <g style="fill: #262626" transform="translate(37.221094 319.824861) scale(0.15 -0.15)">
       <use xlink:href="#ArialMT-4d"/>
       <use xlink:href="#ArialMT-69" x="83.300781"/>
       <use xlink:href="#ArialMT-6e" x="105.517578"/>
       <use xlink:href="#ArialMT-6e" x="161.132812"/>
       <use xlink:href="#ArialMT-65" x="216.748047"/>
       <use xlink:href="#ArialMT-73" x="272.363281"/>
       <use xlink:href="#ArialMT-6f" x="322.363281"/>
       <use xlink:href="#ArialMT-74" x="377.978516"/>
       <use xlink:href="#ArialMT-61" x="405.761719"/>
      </g>
     </g>
    </g>
    <g id="ytick_8">
     <g id="line2d_33">
      <path d="M 109.922656 286.713251 
L 561.282656 286.713251 
" clip-path="url(#pac7a3ffe66)" style="fill: none; stroke: #cccccc; stroke-width: 0.8; stroke-linecap: round"/>
     </g>
     <g id="line2d_34"/>
     <g id="text_18">
      <!-- Missouri -->
      <g style="fill: #262626" transform="translate(50.585156 292.08161) scale(0.15 -0.15)">
       <use xlink:href="#ArialMT-4d"/>
       <use xlink:href="#ArialMT-69" x="83.300781"/>
       <use xlink:href="#ArialMT-73" x="105.517578"/>
       <use xlink:href="#ArialMT-73" x="155.517578"/>
       <use xlink:href="#ArialMT-6f" x="205.517578"/>
       <use xlink:href="#ArialMT-75" x="261.132812"/>
       <use xlink:href="#ArialMT-72" x="316.748047"/>
       <use xlink:href="#ArialMT-69" x="350.048828"/>
      </g>
     </g>
    </g>
    <g id="ytick_9">
     <g id="line2d_35">
      <path d="M 109.922656 258.97 
L 561.282656 258.97 
" clip-path="url(#pac7a3ffe66)" style="fill: none; stroke: #cccccc; stroke-width: 0.8; stroke-linecap: round"/>
     </g>
     <g id="line2d_36"/>
     <g id="text_19">
      <!-- New York -->
      <g style="fill: #262626" transform="translate(43.038281 264.338359) scale(0.15 -0.15)">
       <defs>
        <path id="ArialMT-4e" d="M 488 0 
L 488 4581 
L 1109 4581 
L 3516 984 
L 3516 4581 
L 4097 4581 
L 4097 0 
L 3475 0 
L 1069 3600 
L 1069 0 
L 488 0 
z
" transform="scale(0.015625)"/>
        <path id="ArialMT-77" d="M 1034 0 
L 19 3319 
L 600 3319 
L 1128 1403 
L 1325 691 
Q 1338 744 1497 1375 
L 2025 3319 
L 2603 3319 
L 3100 1394 
L 3266 759 
L 3456 1400 
L 4025 3319 
L 4572 3319 
L 3534 0 
L 2950 0 
L 2422 1988 
L 2294 2553 
L 1622 0 
L 1034 0 
z
" transform="scale(0.015625)"/>
        <path id="ArialMT-59" d="M 1784 0 
L 1784 1941 
L 19 4581 
L 756 4581 
L 1659 3200 
Q 1909 2813 2125 2425 
Q 2331 2784 2625 3234 
L 3513 4581 
L 4219 4581 
L 2391 1941 
L 2391 0 
L 1784 0 
z
" transform="scale(0.015625)"/>
        <path id="ArialMT-6b" d="M 425 0 
L 425 4581 
L 988 4581 
L 988 1969 
L 2319 3319 
L 3047 3319 
L 1778 2088 
L 3175 0 
L 2481 0 
L 1384 1697 
L 988 1316 
L 988 0 
L 425 0 
z
" transform="scale(0.015625)"/>
       </defs>
       <use xlink:href="#ArialMT-4e"/>
       <use xlink:href="#ArialMT-65" x="72.216797"/>
       <use xlink:href="#ArialMT-77" x="127.832031"/>
       <use xlink:href="#ArialMT-20" x="200.048828"/>
       <use xlink:href="#ArialMT-59" x="226.082031"/>
       <use xlink:href="#ArialMT-6f" x="283.65625"/>
       <use xlink:href="#ArialMT-72" x="339.271484"/>
       <use xlink:href="#ArialMT-6b" x="372.572266"/>
      </g>
     </g>
    </g>
    <g id="ytick_10">
     <g id="line2d_37">
      <path d="M 109.922656 231.226749 
L 561.282656 231.226749 
" clip-path="url(#pac7a3ffe66)" style="fill: none; stroke: #cccccc; stroke-width: 0.8; stroke-linecap: round"/>
     </g>
     <g id="line2d_38"/>
     <g id="text_20">
      <!-- Oklahoma -->
      <g style="fill: #262626" transform="translate(38.0625 236.595109) scale(0.15 -0.15)">
       <defs>
        <path id="ArialMT-4f" d="M 309 2231 
Q 309 3372 921 4017 
Q 1534 4663 2503 4663 
Q 3138 4663 3647 4359 
Q 4156 4056 4423 3514 
Q 4691 2972 4691 2284 
Q 4691 1588 4409 1038 
Q 4128 488 3612 205 
Q 3097 -78 2500 -78 
Q 1853 -78 1343 234 
Q 834 547 571 1087 
Q 309 1628 309 2231 
z
M 934 2222 
Q 934 1394 1379 917 
Q 1825 441 2497 441 
Q 3181 441 3623 922 
Q 4066 1403 4066 2288 
Q 4066 2847 3877 3264 
Q 3688 3681 3323 3911 
Q 2959 4141 2506 4141 
Q 1863 4141 1398 3698 
Q 934 3256 934 2222 
z
" transform="scale(0.015625)"/>
       </defs>
       <use xlink:href="#ArialMT-4f"/>
       <use xlink:href="#ArialMT-6b" x="77.783203"/>
       <use xlink:href="#ArialMT-6c" x="127.783203"/>
       <use xlink:href="#ArialMT-61" x="150"/>
       <use xlink:href="#ArialMT-68" x="205.615234"/>
       <use xlink:href="#ArialMT-6f" x="261.230469"/>
       <use xlink:href="#ArialMT-6d" x="316.845703"/>
       <use xlink:href="#ArialMT-61" x="400.146484"/>
      </g>
     </g>
    </g>
    <g id="ytick_11">
     <g id="line2d_39">
      <path d="M 109.922656 203.483499 
L 561.282656 203.483499 
" clip-path="url(#pac7a3ffe66)" style="fill: none; stroke: #cccccc; stroke-width: 0.8; stroke-linecap: round"/>
     </g>
     <g id="line2d_40"/>
     <g id="text_21">
      <!-- Oregon -->
      <g style="fill: #262626" transform="translate(56.395313 208.947952) scale(0.15 -0.15)">
       <use xlink:href="#ArialMT-4f"/>
       <use xlink:href="#ArialMT-72" x="77.783203"/>
       <use xlink:href="#ArialMT-65" x="111.083984"/>
       <use xlink:href="#ArialMT-67" x="166.699219"/>
       <use xlink:href="#ArialMT-6f" x="222.314453"/>
       <use xlink:href="#ArialMT-6e" x="277.929688"/>
      </g>
     </g>
    </g>
    <g id="ytick_12">
     <g id="line2d_41">
      <path d="M 109.922656 175.740248 
L 561.282656 175.740248 
" clip-path="url(#pac7a3ffe66)" style="fill: none; stroke: #cccccc; stroke-width: 0.8; stroke-linecap: round"/>
     </g>
     <g id="line2d_42"/>
     <g id="text_22">
      <!-- Pennsylvania -->
      <g style="fill: #262626" transform="translate(17.203125 181.108607) scale(0.15 -0.15)">
       <defs>
        <path id="ArialMT-76" d="M 1344 0 
L 81 3319 
L 675 3319 
L 1388 1331 
Q 1503 1009 1600 663 
Q 1675 925 1809 1294 
L 2547 3319 
L 3125 3319 
L 1869 0 
L 1344 0 
z
" transform="scale(0.015625)"/>
       </defs>
       <use xlink:href="#ArialMT-50"/>
       <use xlink:href="#ArialMT-65" x="66.699219"/>
       <use xlink:href="#ArialMT-6e" x="122.314453"/>
       <use xlink:href="#ArialMT-6e" x="177.929688"/>
       <use xlink:href="#ArialMT-73" x="233.544922"/>
       <use xlink:href="#ArialMT-79" x="283.544922"/>
       <use xlink:href="#ArialMT-6c" x="333.544922"/>
       <use xlink:href="#ArialMT-76" x="355.761719"/>
       <use xlink:href="#ArialMT-61" x="405.761719"/>
       <use xlink:href="#ArialMT-6e" x="461.376953"/>
       <use xlink:href="#ArialMT-69" x="516.992188"/>
       <use xlink:href="#ArialMT-61" x="539.208984"/>
      </g>
     </g>
    </g>
    <g id="ytick_13">
     <g id="line2d_43">
      <path d="M 109.922656 147.996997 
L 561.282656 147.996997 
" clip-path="url(#pac7a3ffe66)" style="fill: none; stroke: #cccccc; stroke-width: 0.8; stroke-linecap: round"/>
     </g>
     <g id="line2d_44"/>
     <g id="text_23">
      <!-- South Carolina -->
      <g style="fill: #262626" transform="translate(7.2 153.365357) scale(0.15 -0.15)">
       <defs>
        <path id="ArialMT-53" d="M 288 1472 
L 859 1522 
Q 900 1178 1048 958 
Q 1197 738 1509 602 
Q 1822 466 2213 466 
Q 2559 466 2825 569 
Q 3091 672 3220 851 
Q 3350 1031 3350 1244 
Q 3350 1459 3225 1620 
Q 3100 1781 2813 1891 
Q 2628 1963 1997 2114 
Q 1366 2266 1113 2400 
Q 784 2572 623 2826 
Q 463 3081 463 3397 
Q 463 3744 659 4045 
Q 856 4347 1234 4503 
Q 1613 4659 2075 4659 
Q 2584 4659 2973 4495 
Q 3363 4331 3572 4012 
Q 3781 3694 3797 3291 
L 3216 3247 
Q 3169 3681 2898 3903 
Q 2628 4125 2100 4125 
Q 1550 4125 1298 3923 
Q 1047 3722 1047 3438 
Q 1047 3191 1225 3031 
Q 1400 2872 2139 2705 
Q 2878 2538 3153 2413 
Q 3553 2228 3743 1945 
Q 3934 1663 3934 1294 
Q 3934 928 3725 604 
Q 3516 281 3123 101 
Q 2731 -78 2241 -78 
Q 1619 -78 1198 103 
Q 778 284 539 648 
Q 300 1013 288 1472 
z
" transform="scale(0.015625)"/>
       </defs>
       <use xlink:href="#ArialMT-53"/>
       <use xlink:href="#ArialMT-6f" x="66.699219"/>
       <use xlink:href="#ArialMT-75" x="122.314453"/>
       <use xlink:href="#ArialMT-74" x="177.929688"/>
       <use xlink:href="#ArialMT-68" x="205.712891"/>
       <use xlink:href="#ArialMT-20" x="261.328125"/>
       <use xlink:href="#ArialMT-43" x="289.111328"/>
       <use xlink:href="#ArialMT-61" x="361.328125"/>
       <use xlink:href="#ArialMT-72" x="416.943359"/>
       <use xlink:href="#ArialMT-6f" x="450.244141"/>
       <use xlink:href="#ArialMT-6c" x="505.859375"/>
       <use xlink:href="#ArialMT-69" x="528.076172"/>
       <use xlink:href="#ArialMT-6e" x="550.292969"/>
       <use xlink:href="#ArialMT-61" x="605.908203"/>
      </g>
     </g>
    </g>
    <g id="ytick_14">
     <g id="line2d_45">
      <path d="M 109.922656 120.253747 
L 561.282656 120.253747 
" clip-path="url(#pac7a3ffe66)" style="fill: none; stroke: #cccccc; stroke-width: 0.8; stroke-linecap: round"/>
     </g>
     <g id="line2d_46"/>
     <g id="text_24">
      <!-- Utah -->
      <g style="fill: #262626" transform="translate(74.739844 125.622106) scale(0.15 -0.15)">
       <defs>
        <path id="ArialMT-55" d="M 3500 4581 
L 4106 4581 
L 4106 1934 
Q 4106 1244 3950 837 
Q 3794 431 3386 176 
Q 2978 -78 2316 -78 
Q 1672 -78 1262 144 
Q 853 366 678 786 
Q 503 1206 503 1934 
L 503 4581 
L 1109 4581 
L 1109 1938 
Q 1109 1341 1220 1058 
Q 1331 775 1601 622 
Q 1872 469 2263 469 
Q 2931 469 3215 772 
Q 3500 1075 3500 1938 
L 3500 4581 
z
" transform="scale(0.015625)"/>
       </defs>
       <use xlink:href="#ArialMT-55"/>
       <use xlink:href="#ArialMT-74" x="72.216797"/>
       <use xlink:href="#ArialMT-61" x="100"/>
       <use xlink:href="#ArialMT-68" x="155.615234"/>
      </g>
     </g>
    </g>
    <g id="ytick_15">
     <g id="line2d_47">
      <path d="M 109.922656 92.510496 
L 561.282656 92.510496 
" clip-path="url(#pac7a3ffe66)" style="fill: none; stroke: #cccccc; stroke-width: 0.8; stroke-linecap: round"/>
     </g>
     <g id="line2d_48"/>
     <g id="text_25">
      <!-- Vermont -->
      <g style="fill: #262626" transform="translate(50.561719 97.878855) scale(0.15 -0.15)">
       <defs>
        <path id="ArialMT-56" d="M 1803 0 
L 28 4581 
L 684 4581 
L 1875 1253 
Q 2019 853 2116 503 
Q 2222 878 2363 1253 
L 3600 4581 
L 4219 4581 
L 2425 0 
L 1803 0 
z
" transform="scale(0.015625)"/>
       </defs>
       <use xlink:href="#ArialMT-56"/>
       <use xlink:href="#ArialMT-65" x="61.199219"/>
       <use xlink:href="#ArialMT-72" x="116.814453"/>
       <use xlink:href="#ArialMT-6d" x="150.115234"/>
       <use xlink:href="#ArialMT-6f" x="233.416016"/>
       <use xlink:href="#ArialMT-6e" x="289.03125"/>
       <use xlink:href="#ArialMT-74" x="344.646484"/>
      </g>
     </g>
    </g>
    <g id="ytick_16">
     <g id="line2d_49">
      <path d="M 109.922656 64.767245 
L 561.282656 64.767245 
" clip-path="url(#pac7a3ffe66)" style="fill: none; stroke: #cccccc; stroke-width: 0.8; stroke-linecap: round"/>
     </g>
     <g id="line2d_50"/>
     <g id="text_26">
      <!-- Virginia -->
      <g style="fill: #262626" transform="translate(56.6625 70.135605) scale(0.15 -0.15)">
       <use xlink:href="#ArialMT-56"/>
       <use xlink:href="#ArialMT-69" x="64.949219"/>
       <use xlink:href="#ArialMT-72" x="87.166016"/>
       <use xlink:href="#ArialMT-67" x="120.466797"/>
       <use xlink:href="#ArialMT-69" x="176.082031"/>
       <use xlink:href="#ArialMT-6e" x="198.298828"/>
       <use xlink:href="#ArialMT-69" x="253.914062"/>
       <use xlink:href="#ArialMT-61" x="276.130859"/>
      </g>
     </g>
    </g>
    <g id="ytick_17">
     <g id="line2d_51">
      <path d="M 109.922656 37.023994 
L 561.282656 37.023994 
" clip-path="url(#pac7a3ffe66)" style="fill: none; stroke: #cccccc; stroke-width: 0.8; stroke-linecap: round"/>
     </g>
     <g id="line2d_52"/>
     <g id="text_27">
      <!-- Wisconsin -->
      <g style="fill: #262626" transform="translate(38.074219 42.392354) scale(0.15 -0.15)">
       <defs>
        <path id="ArialMT-57" d="M 1294 0 
L 78 4581 
L 700 4581 
L 1397 1578 
Q 1509 1106 1591 641 
Q 1766 1375 1797 1488 
L 2669 4581 
L 3400 4581 
L 4056 2263 
Q 4303 1400 4413 641 
Q 4500 1075 4641 1638 
L 5359 4581 
L 5969 4581 
L 4713 0 
L 4128 0 
L 3163 3491 
Q 3041 3928 3019 4028 
Q 2947 3713 2884 3491 
L 1913 0 
L 1294 0 
z
" transform="scale(0.015625)"/>
       </defs>
       <use xlink:href="#ArialMT-57"/>
       <use xlink:href="#ArialMT-69" x="94.384766"/>
       <use xlink:href="#ArialMT-73" x="116.601562"/>
       <use xlink:href="#ArialMT-63" x="166.601562"/>
       <use xlink:href="#ArialMT-6f" x="216.601562"/>
       <use xlink:href="#ArialMT-6e" x="272.216797"/>
       <use xlink:href="#ArialMT-73" x="327.832031"/>
       <use xlink:href="#ArialMT-69" x="377.832031"/>
       <use xlink:href="#ArialMT-6e" x="400.048828"/>
      </g>
     </g>
    </g>
   </g>
   <g id="patch_3">
    <path d="M 422.198953 480.916006 
L 406.697867 487.851818 
L 406.697867 484.037121 
L 309.038905 484.037121 
L 309.038905 477.79489 
L 406.697867 477.79489 
L 406.697867 473.980193 
z
" clip-path="url(#pac7a3ffe66)" style="fill: #708090; stroke: #708090; stroke-linejoin: miter"/>
   </g>
   <g id="patch_4">
    <path d="M 449.032168 453.172755 
L 433.531082 460.108567 
L 433.531082 456.293871 
L 400.294378 456.293871 
L 400.294378 450.051639 
L 433.531082 450.051639 
L 433.531082 446.236942 
z
" clip-path="url(#pac7a3ffe66)" style="fill: #708090; stroke: #708090; stroke-linejoin: miter"/>
   </g>
   <g id="patch_5">
    <path d="M 536.453666 425.429504 
L 520.95258 432.365317 
L 520.95258 428.55062 
L 390.967628 428.55062 
L 390.967628 422.308388 
L 520.95258 422.308388 
L 520.95258 418.493691 
z
" clip-path="url(#pac7a3ffe66)" style="fill: #708090; stroke: #708090; stroke-linejoin: miter"/>
   </g>
   <g id="patch_6">
    <path d="M 344.481881 397.686253 
L 328.980795 404.622066 
L 328.980795 400.807369 
L 213.33718 400.807369 
L 213.33718 394.565138 
L 328.980795 394.565138 
L 328.980795 390.750441 
z
" clip-path="url(#pac7a3ffe66)" style="fill: #708090; stroke: #708090; stroke-linejoin: miter"/>
   </g>
   <g id="patch_7">
    <path d="M 309.702646 369.943003 
L 294.20156 376.878815 
L 294.20156 373.064118 
L 216.12417 373.064118 
L 216.12417 366.821887 
L 294.20156 366.821887 
L 294.20156 363.00719 
z
" clip-path="url(#pac7a3ffe66)" style="fill: #708090; stroke: #708090; stroke-linejoin: miter"/>
   </g>
   <g id="patch_8">
    <path d="M 415.697064 342.199752 
L 400.195978 349.135565 
L 400.195978 345.320868 
L 333.439431 345.320868 
L 333.439431 339.078636 
L 400.195978 339.078636 
L 400.195978 335.263939 
z
" clip-path="url(#pac7a3ffe66)" style="fill: #708090; stroke: #708090; stroke-linejoin: miter"/>
   </g>
   <g id="patch_9">
    <path d="M 470.346306 314.456501 
L 454.84522 321.392314 
L 454.84522 317.577617 
L 440.650775 317.577617 
L 440.650775 311.335386 
L 454.84522 311.335386 
L 454.84522 307.520689 
z
" clip-path="url(#pac7a3ffe66)" style="fill: #708090; stroke: #708090; stroke-linejoin: miter"/>
   </g>
   <g id="patch_10">
    <path d="M 367.02223 286.713251 
L 351.521144 293.649063 
L 351.521144 289.834366 
L 225.86224 289.834366 
L 225.86224 283.592135 
L 351.521144 283.592135 
L 351.521144 279.777438 
z
" clip-path="url(#pac7a3ffe66)" style="fill: #708090; stroke: #708090; stroke-linejoin: miter"/>
   </g>
   <g id="patch_11">
    <path d="M 417.544857 258.97 
L 402.043771 265.905813 
L 402.043771 262.091116 
L 343.314771 262.091116 
L 343.314771 255.848884 
L 402.043771 255.848884 
L 402.043771 252.034187 
z
" clip-path="url(#pac7a3ffe66)" style="fill: #708090; stroke: #708090; stroke-linejoin: miter"/>
   </g>
   <g id="patch_12">
    <path d="M 307.152874 231.226749 
L 291.651788 238.162562 
L 291.651788 234.347865 
L 248.108942 234.347865 
L 248.108942 228.105634 
L 291.651788 228.105634 
L 291.651788 224.290937 
z
" clip-path="url(#pac7a3ffe66)" style="fill: #708090; stroke: #708090; stroke-linejoin: miter"/>
   </g>
   <g id="patch_13">
    <path d="M 498.302371 203.483499 
L 482.801285 210.419311 
L 482.801285 206.604614 
L 468.3214 206.604614 
L 468.3214 200.362383 
L 482.801285 200.362383 
L 482.801285 196.547686 
z
" clip-path="url(#pac7a3ffe66)" style="fill: #708090; stroke: #708090; stroke-linejoin: miter"/>
   </g>
   <g id="patch_14">
    <path d="M 411.891766 175.740248 
L 396.39068 182.676061 
L 396.39068 178.861364 
L 130.43902 178.861364 
L 130.43902 172.619132 
L 396.39068 172.619132 
L 396.39068 168.804435 
z
" clip-path="url(#pac7a3ffe66)" style="fill: #708090; stroke: #708090; stroke-linejoin: miter"/>
   </g>
   <g id="patch_15">
    <path d="M 402.968644 147.996997 
L 387.467558 154.93281 
L 387.467558 151.118113 
L 351.503145 151.118113 
L 351.503145 144.875882 
L 387.467558 144.875882 
L 387.467558 141.061185 
z
" clip-path="url(#pac7a3ffe66)" style="fill: #708090; stroke: #708090; stroke-linejoin: miter"/>
   </g>
   <g id="patch_16">
    <path d="M 452.624763 120.253747 
L 437.123677 127.189559 
L 437.123677 123.374862 
L 426.818307 123.374862 
L 426.818307 117.132631 
L 437.123677 117.132631 
L 437.123677 113.317934 
z
" clip-path="url(#pac7a3ffe66)" style="fill: #708090; stroke: #708090; stroke-linejoin: miter"/>
   </g>
   <g id="patch_17">
    <path d="M 536.152582 92.510496 
L 520.651496 99.446309 
L 520.651496 95.631612 
L 518.454432 95.631612 
L 518.454432 89.38938 
L 520.651496 89.38938 
L 520.651496 85.574683 
z
" clip-path="url(#pac7a3ffe66)" style="fill: #708090; stroke: #708090; stroke-linejoin: miter"/>
   </g>
   <g id="patch_18">
    <path d="M 401.674945 64.767245 
L 386.173859 71.703058 
L 386.173859 67.888361 
L 303.497396 67.888361 
L 303.497396 61.646129 
L 386.173859 61.646129 
L 386.173859 57.831433 
z
" clip-path="url(#pac7a3ffe66)" style="fill: #708090; stroke: #708090; stroke-linejoin: miter"/>
   </g>
   <g id="patch_19">
    <path d="M 540.766293 37.023994 
L 525.265207 43.959807 
L 525.265207 40.14511 
L 488.888914 40.14511 
L 488.888914 33.902879 
L 525.265207 33.902879 
L 525.265207 30.088182 
z
" clip-path="url(#pac7a3ffe66)" style="fill: #708090; stroke: #708090; stroke-linejoin: miter"/>
   </g>
   <g id="PathCollection_1">
    <defs>
     <path id="m593b966430" d="M 0 3.708099 
C 0.983399 3.708099 1.926654 3.317391 2.622022 2.622022 
C 3.317391 1.926654 3.708099 0.983399 3.708099 0 
C 3.708099 -0.983399 3.317391 -1.926654 2.622022 -2.622022 
C 1.926654 -3.317391 0.983399 -3.708099 0 -3.708099 
C -0.983399 -3.708099 -1.926654 -3.317391 -2.622022 -2.622022 
C -3.317391 -1.926654 -3.708099 -0.983399 -3.708099 0 
C -3.708099 0.983399 -3.317391 1.926654 -2.622022 2.622022 
C -1.926654 3.317391 -0.983399 3.708099 0 3.708099 
z
" style="stroke: #1e90ff"/>
    </defs>
    <g clip-path="url(#pac7a3ffe66)">
     <use xlink:href="#m593b966430" x="309.038905" y="480.916006" style="fill: #1e90ff; stroke: #1e90ff"/>
    </g>
   </g>
   <g id="PathCollection_2">
    <g clip-path="url(#pac7a3ffe66)">
     <use xlink:href="#m593b966430" x="400.294378" y="453.172755" style="fill: #1e90ff; stroke: #1e90ff"/>
    </g>
   </g>
   <g id="PathCollection_3">
    <g clip-path="url(#pac7a3ffe66)">
     <use xlink:href="#m593b966430" x="390.967628" y="425.429504" style="fill: #1e90ff; stroke: #1e90ff"/>
    </g>
   </g>
   <g id="PathCollection_4">
    <g clip-path="url(#pac7a3ffe66)">
     <use xlink:href="#m593b966430" x="213.33718" y="397.686253" style="fill: #1e90ff; stroke: #1e90ff"/>
    </g>
   </g>
   <g id="PathCollection_5">
    <g clip-path="url(#pac7a3ffe66)">
     <use xlink:href="#m593b966430" x="216.12417" y="369.943003" style="fill: #1e90ff; stroke: #1e90ff"/>
    </g>
   </g>
   <g id="PathCollection_6">
    <g clip-path="url(#pac7a3ffe66)">
     <use xlink:href="#m593b966430" x="333.439431" y="342.199752" style="fill: #1e90ff; stroke: #1e90ff"/>
    </g>
   </g>
   <g id="PathCollection_7">
    <g clip-path="url(#pac7a3ffe66)">
     <use xlink:href="#m593b966430" x="440.650775" y="314.456501" style="fill: #1e90ff; stroke: #1e90ff"/>
    </g>
   </g>
   <g id="PathCollection_8">
    <g clip-path="url(#pac7a3ffe66)">
     <use xlink:href="#m593b966430" x="225.86224" y="286.713251" style="fill: #1e90ff; stroke: #1e90ff"/>
    </g>
   </g>
   <g id="PathCollection_9">
    <g clip-path="url(#pac7a3ffe66)">
     <use xlink:href="#m593b966430" x="343.314771" y="258.97" style="fill: #1e90ff; stroke: #1e90ff"/>
    </g>
   </g>
   <g id="PathCollection_10">
    <g clip-path="url(#pac7a3ffe66)">
     <use xlink:href="#m593b966430" x="248.108942" y="231.226749" style="fill: #1e90ff; stroke: #1e90ff"/>
    </g>
   </g>
   <g id="PathCollection_11">
    <g clip-path="url(#pac7a3ffe66)">
     <use xlink:href="#m593b966430" x="468.3214" y="203.483499" style="fill: #1e90ff; stroke: #1e90ff"/>
    </g>
   </g>
   <g id="PathCollection_12">
    <g clip-path="url(#pac7a3ffe66)">
     <use xlink:href="#m593b966430" x="130.43902" y="175.740248" style="fill: #1e90ff; stroke: #1e90ff"/>
    </g>
   </g>
   <g id="PathCollection_13">
    <g clip-path="url(#pac7a3ffe66)">
     <use xlink:href="#m593b966430" x="351.503145" y="147.996997" style="fill: #1e90ff; stroke: #1e90ff"/>
    </g>
   </g>
   <g id="PathCollection_14">
    <g clip-path="url(#pac7a3ffe66)">
     <use xlink:href="#m593b966430" x="426.818307" y="120.253747" style="fill: #1e90ff; stroke: #1e90ff"/>
    </g>
   </g>
   <g id="PathCollection_15">
    <g clip-path="url(#pac7a3ffe66)">
     <use xlink:href="#m593b966430" x="518.454432" y="92.510496" style="fill: #1e90ff; stroke: #1e90ff"/>
    </g>
   </g>
   <g id="PathCollection_16">
    <g clip-path="url(#pac7a3ffe66)">
     <use xlink:href="#m593b966430" x="303.497396" y="64.767245" style="fill: #1e90ff; stroke: #1e90ff"/>
    </g>
   </g>
   <g id="PathCollection_17">
    <g clip-path="url(#pac7a3ffe66)">
     <use xlink:href="#m593b966430" x="488.888914" y="37.023994" style="fill: #1e90ff; stroke: #1e90ff"/>
    </g>
   </g>
   <g id="PathCollection_18">
    <defs>
     <path id="mc16abf5107" d="M 0 3.708099 
C 0.983399 3.708099 1.926654 3.317391 2.622022 2.622022 
C 3.317391 1.926654 3.708099 0.983399 3.708099 0 
C 3.708099 -0.983399 3.317391 -1.926654 2.622022 -2.622022 
C 1.926654 -3.317391 0.983399 -3.708099 0 -3.708099 
C -0.983399 -3.708099 -1.926654 -3.317391 -2.622022 -2.622022 
C -3.317391 -1.926654 -3.708099 -0.983399 -3.708099 0 
C -3.708099 0.983399 -3.317391 1.926654 -2.622022 2.622022 
C -1.926654 3.317391 -0.983399 3.708099 0 3.708099 
z
" style="stroke: #ff00ff"/>
    </defs>
    <g clip-path="url(#pac7a3ffe66)">
     <use xlink:href="#mc16abf5107" x="422.198953" y="480.916006" style="fill: #ff00ff; stroke: #ff00ff"/>
    </g>
   </g>
   <g id="PathCollection_19">
    <g clip-path="url(#pac7a3ffe66)">
     <use xlink:href="#mc16abf5107" x="449.032168" y="453.172755" style="fill: #ff00ff; stroke: #ff00ff"/>
    </g>
   </g>
   <g id="PathCollection_20">
    <g clip-path="url(#pac7a3ffe66)">
     <use xlink:href="#mc16abf5107" x="536.453666" y="425.429504" style="fill: #ff00ff; stroke: #ff00ff"/>
    </g>
   </g>
   <g id="PathCollection_21">
    <g clip-path="url(#pac7a3ffe66)">
     <use xlink:href="#mc16abf5107" x="344.481881" y="397.686253" style="fill: #ff00ff; stroke: #ff00ff"/>
    </g>
   </g>
   <g id="PathCollection_22">
    <g clip-path="url(#pac7a3ffe66)">
     <use xlink:href="#mc16abf5107" x="309.702646" y="369.943003" style="fill: #ff00ff; stroke: #ff00ff"/>
    </g>
   </g>
   <g id="PathCollection_23">
    <g clip-path="url(#pac7a3ffe66)">
     <use xlink:href="#mc16abf5107" x="415.697064" y="342.199752" style="fill: #ff00ff; stroke: #ff00ff"/>
    </g>
   </g>
   <g id="PathCollection_24">
    <g clip-path="url(#pac7a3ffe66)">
     <use xlink:href="#mc16abf5107" x="470.346306" y="314.456501" style="fill: #ff00ff; stroke: #ff00ff"/>
    </g>
   </g>
   <g id="PathCollection_25">
    <g clip-path="url(#pac7a3ffe66)">
     <use xlink:href="#mc16abf5107" x="367.02223" y="286.713251" style="fill: #ff00ff; stroke: #ff00ff"/>
    </g>
   </g>
   <g id="PathCollection_26">
    <g clip-path="url(#pac7a3ffe66)">
     <use xlink:href="#mc16abf5107" x="417.544857" y="258.97" style="fill: #ff00ff; stroke: #ff00ff"/>
    </g>
   </g>
   <g id="PathCollection_27">
    <g clip-path="url(#pac7a3ffe66)">
     <use xlink:href="#mc16abf5107" x="307.152874" y="231.226749" style="fill: #ff00ff; stroke: #ff00ff"/>
    </g>
   </g>
   <g id="PathCollection_28">
    <g clip-path="url(#pac7a3ffe66)">
     <use xlink:href="#mc16abf5107" x="498.302371" y="203.483499" style="fill: #ff00ff; stroke: #ff00ff"/>
    </g>
   </g>
   <g id="PathCollection_29">
    <g clip-path="url(#pac7a3ffe66)">
     <use xlink:href="#mc16abf5107" x="411.891766" y="175.740248" style="fill: #ff00ff; stroke: #ff00ff"/>
    </g>
   </g>
   <g id="PathCollection_30">
    <g clip-path="url(#pac7a3ffe66)">
     <use xlink:href="#mc16abf5107" x="402.968644" y="147.996997" style="fill: #ff00ff; stroke: #ff00ff"/>
    </g>
   </g>
   <g id="PathCollection_31">
    <g clip-path="url(#pac7a3ffe66)">
     <use xlink:href="#mc16abf5107" x="452.624763" y="120.253747" style="fill: #ff00ff; stroke: #ff00ff"/>
    </g>
   </g>
   <g id="PathCollection_32">
    <g clip-path="url(#pac7a3ffe66)">
     <use xlink:href="#mc16abf5107" x="536.152582" y="92.510496" style="fill: #ff00ff; stroke: #ff00ff"/>
    </g>
   </g>
   <g id="PathCollection_33">
    <g clip-path="url(#pac7a3ffe66)">
     <use xlink:href="#mc16abf5107" x="401.674945" y="64.767245" style="fill: #ff00ff; stroke: #ff00ff"/>
    </g>
   </g>
   <g id="PathCollection_34">
    <g clip-path="url(#pac7a3ffe66)">
     <use xlink:href="#mc16abf5107" x="540.766293" y="37.023994" style="fill: #ff00ff; stroke: #ff00ff"/>
    </g>
   </g>
   <g id="line2d_53">
    <path d="M 333.674517 510.74 
L 333.674517 7.2 
" clip-path="url(#pac7a3ffe66)" style="fill: none; stroke-dasharray: 5.55,2.4; stroke-dashoffset: 0; stroke: #d8bfd8; stroke-width: 1.5"/>
   </g>
   <g id="patch_20">
    <path d="M 109.922656 510.74 
L 109.922656 7.2 
" style="fill: none; stroke: #cccccc; stroke-linejoin: miter; stroke-linecap: square"/>
   </g>
   <g id="patch_21">
    <path d="M 561.282656 510.74 
L 561.282656 7.2 
" style="fill: none; stroke: #cccccc; stroke-linejoin: miter; stroke-linecap: square"/>
   </g>
   <g id="patch_22">
    <path d="M 109.922656 510.74 
L 561.282656 510.74 
" style="fill: none; stroke: #cccccc; stroke-linejoin: miter; stroke-linecap: square"/>
   </g>
   <g id="patch_23">
    <path d="M 109.922656 7.2 
L 561.282656 7.2 
" style="fill: none; stroke: #cccccc; stroke-linejoin: miter; stroke-linecap: square"/>
   </g>
  </g>
 </g>
 <defs>
  <clipPath id="pac7a3ffe66">
   <rect x="109.922656" y="7.2" width="451.36" height="503.54"/>
  </clipPath>
 </defs>
</svg>
