<?xml version="1.0" encoding="utf-8" standalone="no"?>
<!DOCTYPE svg PUBLIC "-//W3C//DTD SVG 1.1//EN"
  "http://www.w3.org/Graphics/SVG/1.1/DTD/svg11.dtd">
<svg xmlns:xlink="http://www.w3.org/1999/xlink" width="432pt" height="410.4pt" viewBox="0 0 432 410.4" xmlns="http://www.w3.org/2000/svg" version="1.1">
 <metadata>
  <rdf:RDF xmlns:dc="http://purl.org/dc/elements/1.1/" xmlns:cc="http://creativecommons.org/ns#" xmlns:rdf="http://www.w3.org/1999/02/22-rdf-syntax-ns#">
   <cc:Work>
    <dc:type rdf:resource="http://purl.org/dc/dcmitype/StillImage"/>
    <dc:date>2024-10-15T08:22:52.474690</dc:date>
    <dc:format>image/svg+xml</dc:format>
    <dc:creator>
     <cc:Agent>
      <dc:title>Matplotlib v3.7.2, https://matplotlib.org/</dc:title>
     </cc:Agent>
    </dc:creator>
   </cc:Work>
  </rdf:RDF>
 </metadata>
 <defs>
  <style type="text/css">*{stroke-linejoin: round; stroke-linecap: butt}</style>
 </defs>
 <g id="figure_1">
  <g id="patch_1">
   <path d="M 0 410.4 
L 432 410.4 
L 432 0 
L 0 0 
L 0 410.4 
z
" style="fill: none"/>
  </g>
  <g id="axes_1">
   <g id="patch_2">
    <path d="M 54 365.256 
L 388.8 365.256 
L 388.8 49.248 
L 54 49.248 
L 54 365.256 
z
" style="fill: none"/>
   </g>
   <g id="matplotlib.axis_1">
    <g id="xtick_1">
     <g id="line2d_1">
      <defs>
       <path id="mf90a79d934" d="M 0 0 
L 0 3.5 
" style="stroke: #000000; stroke-width: 0.8"/>
      </defs>
      <g>
       <use xlink:href="#mf90a79d934" x="115.007574" y="365.256" style="stroke: #000000; stroke-width: 0.8"/>
      </g>
     </g>
     <g id="text_1">
      <!-- −2 -->
      <g transform="translate(108.37359 379.094594) scale(0.09 -0.09)">
       <defs>
        <path id="DejaVuSans-2212" d="M 678 2272 
L 4684 2272 
L 4684 1741 
L 678 1741 
L 678 2272 
z
" transform="scale(0.015625)"/>
        <path id="DejaVuSans-32" d="M 1228 531 
L 3431 531 
L 3431 0 
L 469 0 
L 469 531 
Q 828 903 1448 1529 
Q 2069 2156 2228 2338 
Q 2531 2678 2651 2914 
Q 2772 3150 2772 3378 
Q 2772 3750 2511 3984 
Q 2250 4219 1831 4219 
Q 1534 4219 1204 4116 
Q 875 4013 500 3803 
L 500 4441 
Q 881 4594 1212 4672 
Q 1544 4750 1819 4750 
Q 2544 4750 2975 4387 
Q 3406 4025 3406 3419 
Q 3406 3131 3298 2873 
Q 3191 2616 2906 2266 
Q 2828 2175 2409 1742 
Q 1991 1309 1228 531 
z
" transform="scale(0.015625)"/>
       </defs>
       <use xlink:href="#DejaVuSans-2212"/>
       <use xlink:href="#DejaVuSans-32" x="83.789062"/>
      </g>
     </g>
    </g>
    <g id="xtick_2">
     <g id="line2d_2">
      <g>
       <use xlink:href="#mf90a79d934" x="176.453147" y="365.256" style="stroke: #000000; stroke-width: 0.8"/>
      </g>
     </g>
     <g id="text_2">
      <!-- −1 -->
      <g transform="translate(169.819163 379.094594) scale(0.09 -0.09)">
       <defs>
        <path id="DejaVuSans-31" d="M 794 531 
L 1825 531 
L 1825 4091 
L 703 3866 
L 703 4441 
L 1819 4666 
L 2450 4666 
L 2450 531 
L 3481 531 
L 3481 0 
L 794 0 
L 794 531 
z
" transform="scale(0.015625)"/>
       </defs>
       <use xlink:href="#DejaVuSans-2212"/>
       <use xlink:href="#DejaVuSans-31" x="83.789062"/>
      </g>
     </g>
    </g>
    <g id="xtick_3">
     <g id="line2d_3">
      <g>
       <use xlink:href="#mf90a79d934" x="237.898721" y="365.256" style="stroke: #000000; stroke-width: 0.8"/>
      </g>
     </g>
     <g id="text_3">
      <!-- 0 -->
      <g transform="translate(235.035596 379.094594) scale(0.09 -0.09)">
       <defs>
        <path id="DejaVuSans-30" d="M 2034 4250 
Q 1547 4250 1301 3770 
Q 1056 3291 1056 2328 
Q 1056 1369 1301 889 
Q 1547 409 2034 409 
Q 2525 409 2770 889 
Q 3016 1369 3016 2328 
Q 3016 3291 2770 3770 
Q 2525 4250 2034 4250 
z
M 2034 4750 
Q 2819 4750 3233 4129 
Q 3647 3509 3647 2328 
Q 3647 1150 3233 529 
Q 2819 -91 2034 -91 
Q 1250 -91 836 529 
Q 422 1150 422 2328 
Q 422 3509 836 4129 
Q 1250 4750 2034 4750 
z
" transform="scale(0.015625)"/>
       </defs>
       <use xlink:href="#DejaVuSans-30"/>
      </g>
     </g>
    </g>
    <g id="xtick_4">
     <g id="line2d_4">
      <g>
       <use xlink:href="#mf90a79d934" x="299.344294" y="365.256" style="stroke: #000000; stroke-width: 0.8"/>
      </g>
     </g>
     <g id="text_4">
      <!-- 1 -->
      <g transform="translate(296.481169 379.094594) scale(0.09 -0.09)">
       <use xlink:href="#DejaVuSans-31"/>
      </g>
     </g>
    </g>
    <g id="xtick_5">
     <g id="line2d_5">
      <g>
       <use xlink:href="#mf90a79d934" x="360.789867" y="365.256" style="stroke: #000000; stroke-width: 0.8"/>
      </g>
     </g>
     <g id="text_5">
      <!-- 2 -->
      <g transform="translate(357.926742 379.094594) scale(0.09 -0.09)">
       <use xlink:href="#DejaVuSans-32"/>
      </g>
     </g>
    </g>
   </g>
   <g id="matplotlib.axis_2">
    <g id="ytick_1">
     <g id="text_6">
      <!-- [Wisconsin] -->
      <g transform="translate(-4.959531 358.901854) scale(0.09 -0.09)">
       <defs>
        <path id="DejaVuSans-5b" d="M 550 4863 
L 1875 4863 
L 1875 4416 
L 1125 4416 
L 1125 -397 
L 1875 -397 
L 1875 -844 
L 550 -844 
L 550 4863 
z
" transform="scale(0.015625)"/>
        <path id="DejaVuSans-57" d="M 213 4666 
L 850 4666 
L 1831 722 
L 2809 4666 
L 3519 4666 
L 4500 722 
L 5478 4666 
L 6119 4666 
L 4947 0 
L 4153 0 
L 3169 4050 
L 2175 0 
L 1381 0 
L 213 4666 
z
" transform="scale(0.015625)"/>
        <path id="DejaVuSans-69" d="M 603 3500 
L 1178 3500 
L 1178 0 
L 603 0 
L 603 3500 
z
M 603 4863 
L 1178 4863 
L 1178 4134 
L 603 4134 
L 603 4863 
z
" transform="scale(0.015625)"/>
        <path id="DejaVuSans-73" d="M 2834 3397 
L 2834 2853 
Q 2591 2978 2328 3040 
Q 2066 3103 1784 3103 
Q 1356 3103 1142 2972 
Q 928 2841 928 2578 
Q 928 2378 1081 2264 
Q 1234 2150 1697 2047 
L 1894 2003 
Q 2506 1872 2764 1633 
Q 3022 1394 3022 966 
Q 3022 478 2636 193 
Q 2250 -91 1575 -91 
Q 1294 -91 989 -36 
Q 684 19 347 128 
L 347 722 
Q 666 556 975 473 
Q 1284 391 1588 391 
Q 1994 391 2212 530 
Q 2431 669 2431 922 
Q 2431 1156 2273 1281 
Q 2116 1406 1581 1522 
L 1381 1569 
Q 847 1681 609 1914 
Q 372 2147 372 2553 
Q 372 3047 722 3315 
Q 1072 3584 1716 3584 
Q 2034 3584 2315 3537 
Q 2597 3491 2834 3397 
z
" transform="scale(0.015625)"/>
        <path id="DejaVuSans-63" d="M 3122 3366 
L 3122 2828 
Q 2878 2963 2633 3030 
Q 2388 3097 2138 3097 
Q 1578 3097 1268 2742 
Q 959 2388 959 1747 
Q 959 1106 1268 751 
Q 1578 397 2138 397 
Q 2388 397 2633 464 
Q 2878 531 3122 666 
L 3122 134 
Q 2881 22 2623 -34 
Q 2366 -91 2075 -91 
Q 1284 -91 818 406 
Q 353 903 353 1747 
Q 353 2603 823 3093 
Q 1294 3584 2113 3584 
Q 2378 3584 2631 3529 
Q 2884 3475 3122 3366 
z
" transform="scale(0.015625)"/>
        <path id="DejaVuSans-6f" d="M 1959 3097 
Q 1497 3097 1228 2736 
Q 959 2375 959 1747 
Q 959 1119 1226 758 
Q 1494 397 1959 397 
Q 2419 397 2687 759 
Q 2956 1122 2956 1747 
Q 2956 2369 2687 2733 
Q 2419 3097 1959 3097 
z
M 1959 3584 
Q 2709 3584 3137 3096 
Q 3566 2609 3566 1747 
Q 3566 888 3137 398 
Q 2709 -91 1959 -91 
Q 1206 -91 779 398 
Q 353 888 353 1747 
Q 353 2609 779 3096 
Q 1206 3584 1959 3584 
z
" transform="scale(0.015625)"/>
        <path id="DejaVuSans-6e" d="M 3513 2113 
L 3513 0 
L 2938 0 
L 2938 2094 
Q 2938 2591 2744 2837 
Q 2550 3084 2163 3084 
Q 1697 3084 1428 2787 
Q 1159 2491 1159 1978 
L 1159 0 
L 581 0 
L 581 3500 
L 1159 3500 
L 1159 2956 
Q 1366 3272 1645 3428 
Q 1925 3584 2291 3584 
Q 2894 3584 3203 3211 
Q 3513 2838 3513 2113 
z
" transform="scale(0.015625)"/>
        <path id="DejaVuSans-5d" d="M 1947 4863 
L 1947 -844 
L 622 -844 
L 622 -397 
L 1369 -397 
L 1369 4416 
L 622 4416 
L 622 4863 
L 1947 4863 
z
" transform="scale(0.015625)"/>
       </defs>
       <use xlink:href="#DejaVuSans-5b"/>
       <use xlink:href="#DejaVuSans-57" x="39.013672"/>
       <use xlink:href="#DejaVuSans-69" x="135.640625"/>
       <use xlink:href="#DejaVuSans-73" x="163.423828"/>
       <use xlink:href="#DejaVuSans-63" x="215.523438"/>
       <use xlink:href="#DejaVuSans-6f" x="270.503906"/>
       <use xlink:href="#DejaVuSans-6e" x="331.685547"/>
       <use xlink:href="#DejaVuSans-73" x="395.064453"/>
       <use xlink:href="#DejaVuSans-69" x="447.164062"/>
       <use xlink:href="#DejaVuSans-6e" x="474.947266"/>
       <use xlink:href="#DejaVuSans-5d" x="538.326172"/>
      </g>
     </g>
    </g>
    <g id="ytick_2">
     <g id="text_7">
      <!-- [Virginia] -->
      <g transform="translate(6.047187 340.983874) scale(0.09 -0.09)">
       <defs>
        <path id="DejaVuSans-56" d="M 1831 0 
L 50 4666 
L 709 4666 
L 2188 738 
L 3669 4666 
L 4325 4666 
L 2547 0 
L 1831 0 
z
" transform="scale(0.015625)"/>
        <path id="DejaVuSans-72" d="M 2631 2963 
Q 2534 3019 2420 3045 
Q 2306 3072 2169 3072 
Q 1681 3072 1420 2755 
Q 1159 2438 1159 1844 
L 1159 0 
L 581 0 
L 581 3500 
L 1159 3500 
L 1159 2956 
Q 1341 3275 1631 3429 
Q 1922 3584 2338 3584 
Q 2397 3584 2469 3576 
Q 2541 3569 2628 3553 
L 2631 2963 
z
" transform="scale(0.015625)"/>
        <path id="DejaVuSans-67" d="M 2906 1791 
Q 2906 2416 2648 2759 
Q 2391 3103 1925 3103 
Q 1463 3103 1205 2759 
Q 947 2416 947 1791 
Q 947 1169 1205 825 
Q 1463 481 1925 481 
Q 2391 481 2648 825 
Q 2906 1169 2906 1791 
z
M 3481 434 
Q 3481 -459 3084 -895 
Q 2688 -1331 1869 -1331 
Q 1566 -1331 1297 -1286 
Q 1028 -1241 775 -1147 
L 775 -588 
Q 1028 -725 1275 -790 
Q 1522 -856 1778 -856 
Q 2344 -856 2625 -561 
Q 2906 -266 2906 331 
L 2906 616 
Q 2728 306 2450 153 
Q 2172 0 1784 0 
Q 1141 0 747 490 
Q 353 981 353 1791 
Q 353 2603 747 3093 
Q 1141 3584 1784 3584 
Q 2172 3584 2450 3431 
Q 2728 3278 2906 2969 
L 2906 3500 
L 3481 3500 
L 3481 434 
z
" transform="scale(0.015625)"/>
        <path id="DejaVuSans-61" d="M 2194 1759 
Q 1497 1759 1228 1600 
Q 959 1441 959 1056 
Q 959 750 1161 570 
Q 1363 391 1709 391 
Q 2188 391 2477 730 
Q 2766 1069 2766 1631 
L 2766 1759 
L 2194 1759 
z
M 3341 1997 
L 3341 0 
L 2766 0 
L 2766 531 
Q 2569 213 2275 61 
Q 1981 -91 1556 -91 
Q 1019 -91 701 211 
Q 384 513 384 1019 
Q 384 1609 779 1909 
Q 1175 2209 1959 2209 
L 2766 2209 
L 2766 2266 
Q 2766 2663 2505 2880 
Q 2244 3097 1772 3097 
Q 1472 3097 1187 3025 
Q 903 2953 641 2809 
L 641 3341 
Q 956 3463 1253 3523 
Q 1550 3584 1831 3584 
Q 2591 3584 2966 3190 
Q 3341 2797 3341 1997 
z
" transform="scale(0.015625)"/>
       </defs>
       <use xlink:href="#DejaVuSans-5b"/>
       <use xlink:href="#DejaVuSans-56" x="39.013672"/>
       <use xlink:href="#DejaVuSans-69" x="105.171875"/>
       <use xlink:href="#DejaVuSans-72" x="132.955078"/>
       <use xlink:href="#DejaVuSans-67" x="172.318359"/>
       <use xlink:href="#DejaVuSans-69" x="235.794922"/>
       <use xlink:href="#DejaVuSans-6e" x="263.578125"/>
       <use xlink:href="#DejaVuSans-69" x="326.957031"/>
       <use xlink:href="#DejaVuSans-61" x="354.740234"/>
       <use xlink:href="#DejaVuSans-5d" x="416.019531"/>
      </g>
     </g>
    </g>
    <g id="ytick_3">
     <g id="text_8">
      <!-- [Vermont] -->
      <g transform="translate(1.9325 323.065895) scale(0.09 -0.09)">
       <defs>
        <path id="DejaVuSans-65" d="M 3597 1894 
L 3597 1613 
L 953 1613 
Q 991 1019 1311 708 
Q 1631 397 2203 397 
Q 2534 397 2845 478 
Q 3156 559 3463 722 
L 3463 178 
Q 3153 47 2828 -22 
Q 2503 -91 2169 -91 
Q 1331 -91 842 396 
Q 353 884 353 1716 
Q 353 2575 817 3079 
Q 1281 3584 2069 3584 
Q 2775 3584 3186 3129 
Q 3597 2675 3597 1894 
z
M 3022 2063 
Q 3016 2534 2758 2815 
Q 2500 3097 2075 3097 
Q 1594 3097 1305 2825 
Q 1016 2553 972 2059 
L 3022 2063 
z
" transform="scale(0.015625)"/>
        <path id="DejaVuSans-6d" d="M 3328 2828 
Q 3544 3216 3844 3400 
Q 4144 3584 4550 3584 
Q 5097 3584 5394 3201 
Q 5691 2819 5691 2113 
L 5691 0 
L 5113 0 
L 5113 2094 
Q 5113 2597 4934 2840 
Q 4756 3084 4391 3084 
Q 3944 3084 3684 2787 
Q 3425 2491 3425 1978 
L 3425 0 
L 2847 0 
L 2847 2094 
Q 2847 2600 2669 2842 
Q 2491 3084 2119 3084 
Q 1678 3084 1418 2786 
Q 1159 2488 1159 1978 
L 1159 0 
L 581 0 
L 581 3500 
L 1159 3500 
L 1159 2956 
Q 1356 3278 1631 3431 
Q 1906 3584 2284 3584 
Q 2666 3584 2933 3390 
Q 3200 3197 3328 2828 
z
" transform="scale(0.015625)"/>
        <path id="DejaVuSans-74" d="M 1172 4494 
L 1172 3500 
L 2356 3500 
L 2356 3053 
L 1172 3053 
L 1172 1153 
Q 1172 725 1289 603 
Q 1406 481 1766 481 
L 2356 481 
L 2356 0 
L 1766 0 
Q 1100 0 847 248 
Q 594 497 594 1153 
L 594 3053 
L 172 3053 
L 172 3500 
L 594 3500 
L 594 4494 
L 1172 4494 
z
" transform="scale(0.015625)"/>
       </defs>
       <use xlink:href="#DejaVuSans-5b"/>
       <use xlink:href="#DejaVuSans-56" x="39.013672"/>
       <use xlink:href="#DejaVuSans-65" x="99.671875"/>
       <use xlink:href="#DejaVuSans-72" x="161.195312"/>
       <use xlink:href="#DejaVuSans-6d" x="200.558594"/>
       <use xlink:href="#DejaVuSans-6f" x="297.970703"/>
       <use xlink:href="#DejaVuSans-6e" x="359.152344"/>
       <use xlink:href="#DejaVuSans-74" x="422.53125"/>
       <use xlink:href="#DejaVuSans-5d" x="461.740234"/>
      </g>
     </g>
    </g>
    <g id="ytick_4">
     <g id="text_9">
      <!-- [Utah] -->
      <g transform="translate(18.642969 305.147915) scale(0.09 -0.09)">
       <defs>
        <path id="DejaVuSans-55" d="M 556 4666 
L 1191 4666 
L 1191 1831 
Q 1191 1081 1462 751 
Q 1734 422 2344 422 
Q 2950 422 3222 751 
Q 3494 1081 3494 1831 
L 3494 4666 
L 4128 4666 
L 4128 1753 
Q 4128 841 3676 375 
Q 3225 -91 2344 -91 
Q 1459 -91 1007 375 
Q 556 841 556 1753 
L 556 4666 
z
" transform="scale(0.015625)"/>
        <path id="DejaVuSans-68" d="M 3513 2113 
L 3513 0 
L 2938 0 
L 2938 2094 
Q 2938 2591 2744 2837 
Q 2550 3084 2163 3084 
Q 1697 3084 1428 2787 
Q 1159 2491 1159 1978 
L 1159 0 
L 581 0 
L 581 4863 
L 1159 4863 
L 1159 2956 
Q 1366 3272 1645 3428 
Q 1925 3584 2291 3584 
Q 2894 3584 3203 3211 
Q 3513 2838 3513 2113 
z
" transform="scale(0.015625)"/>
       </defs>
       <use xlink:href="#DejaVuSans-5b"/>
       <use xlink:href="#DejaVuSans-55" x="39.013672"/>
       <use xlink:href="#DejaVuSans-74" x="112.207031"/>
       <use xlink:href="#DejaVuSans-61" x="151.416016"/>
       <use xlink:href="#DejaVuSans-68" x="212.695312"/>
       <use xlink:href="#DejaVuSans-5d" x="276.074219"/>
      </g>
     </g>
    </g>
    <g id="ytick_5">
     <g id="text_10">
      <!-- [South Carolina] -->
      <g transform="translate(-26.063125 287.229936) scale(0.09 -0.09)">
       <defs>
        <path id="DejaVuSans-53" d="M 3425 4513 
L 3425 3897 
Q 3066 4069 2747 4153 
Q 2428 4238 2131 4238 
Q 1616 4238 1336 4038 
Q 1056 3838 1056 3469 
Q 1056 3159 1242 3001 
Q 1428 2844 1947 2747 
L 2328 2669 
Q 3034 2534 3370 2195 
Q 3706 1856 3706 1288 
Q 3706 609 3251 259 
Q 2797 -91 1919 -91 
Q 1588 -91 1214 -16 
Q 841 59 441 206 
L 441 856 
Q 825 641 1194 531 
Q 1563 422 1919 422 
Q 2459 422 2753 634 
Q 3047 847 3047 1241 
Q 3047 1584 2836 1778 
Q 2625 1972 2144 2069 
L 1759 2144 
Q 1053 2284 737 2584 
Q 422 2884 422 3419 
Q 422 4038 858 4394 
Q 1294 4750 2059 4750 
Q 2388 4750 2728 4690 
Q 3069 4631 3425 4513 
z
" transform="scale(0.015625)"/>
        <path id="DejaVuSans-75" d="M 544 1381 
L 544 3500 
L 1119 3500 
L 1119 1403 
Q 1119 906 1312 657 
Q 1506 409 1894 409 
Q 2359 409 2629 706 
Q 2900 1003 2900 1516 
L 2900 3500 
L 3475 3500 
L 3475 0 
L 2900 0 
L 2900 538 
Q 2691 219 2414 64 
Q 2138 -91 1772 -91 
Q 1169 -91 856 284 
Q 544 659 544 1381 
z
M 1991 3584 
L 1991 3584 
z
" transform="scale(0.015625)"/>
        <path id="DejaVuSans-20" transform="scale(0.015625)"/>
        <path id="DejaVuSans-43" d="M 4122 4306 
L 4122 3641 
Q 3803 3938 3442 4084 
Q 3081 4231 2675 4231 
Q 1875 4231 1450 3742 
Q 1025 3253 1025 2328 
Q 1025 1406 1450 917 
Q 1875 428 2675 428 
Q 3081 428 3442 575 
Q 3803 722 4122 1019 
L 4122 359 
Q 3791 134 3420 21 
Q 3050 -91 2638 -91 
Q 1578 -91 968 557 
Q 359 1206 359 2328 
Q 359 3453 968 4101 
Q 1578 4750 2638 4750 
Q 3056 4750 3426 4639 
Q 3797 4528 4122 4306 
z
" transform="scale(0.015625)"/>
        <path id="DejaVuSans-6c" d="M 603 4863 
L 1178 4863 
L 1178 0 
L 603 0 
L 603 4863 
z
" transform="scale(0.015625)"/>
       </defs>
       <use xlink:href="#DejaVuSans-5b"/>
       <use xlink:href="#DejaVuSans-53" x="39.013672"/>
       <use xlink:href="#DejaVuSans-6f" x="102.490234"/>
       <use xlink:href="#DejaVuSans-75" x="163.671875"/>
       <use xlink:href="#DejaVuSans-74" x="227.050781"/>
       <use xlink:href="#DejaVuSans-68" x="266.259766"/>
       <use xlink:href="#DejaVuSans-20" x="329.638672"/>
       <use xlink:href="#DejaVuSans-43" x="361.425781"/>
       <use xlink:href="#DejaVuSans-61" x="431.25"/>
       <use xlink:href="#DejaVuSans-72" x="492.529297"/>
       <use xlink:href="#DejaVuSans-6f" x="531.392578"/>
       <use xlink:href="#DejaVuSans-6c" x="592.574219"/>
       <use xlink:href="#DejaVuSans-69" x="620.357422"/>
       <use xlink:href="#DejaVuSans-6e" x="648.140625"/>
       <use xlink:href="#DejaVuSans-61" x="711.519531"/>
       <use xlink:href="#DejaVuSans-5d" x="772.798828"/>
      </g>
     </g>
    </g>
    <g id="ytick_6">
     <g id="text_11">
      <!-- [Pennsylvania] -->
      <g transform="translate(-19.145781 269.311957) scale(0.09 -0.09)">
       <defs>
        <path id="DejaVuSans-50" d="M 1259 4147 
L 1259 2394 
L 2053 2394 
Q 2494 2394 2734 2622 
Q 2975 2850 2975 3272 
Q 2975 3691 2734 3919 
Q 2494 4147 2053 4147 
L 1259 4147 
z
M 628 4666 
L 2053 4666 
Q 2838 4666 3239 4311 
Q 3641 3956 3641 3272 
Q 3641 2581 3239 2228 
Q 2838 1875 2053 1875 
L 1259 1875 
L 1259 0 
L 628 0 
L 628 4666 
z
" transform="scale(0.015625)"/>
        <path id="DejaVuSans-79" d="M 2059 -325 
Q 1816 -950 1584 -1140 
Q 1353 -1331 966 -1331 
L 506 -1331 
L 506 -850 
L 844 -850 
Q 1081 -850 1212 -737 
Q 1344 -625 1503 -206 
L 1606 56 
L 191 3500 
L 800 3500 
L 1894 763 
L 2988 3500 
L 3597 3500 
L 2059 -325 
z
" transform="scale(0.015625)"/>
        <path id="DejaVuSans-76" d="M 191 3500 
L 800 3500 
L 1894 563 
L 2988 3500 
L 3597 3500 
L 2284 0 
L 1503 0 
L 191 3500 
z
" transform="scale(0.015625)"/>
       </defs>
       <use xlink:href="#DejaVuSans-5b"/>
       <use xlink:href="#DejaVuSans-50" x="39.013672"/>
       <use xlink:href="#DejaVuSans-65" x="95.691406"/>
       <use xlink:href="#DejaVuSans-6e" x="157.214844"/>
       <use xlink:href="#DejaVuSans-6e" x="220.59375"/>
       <use xlink:href="#DejaVuSans-73" x="283.972656"/>
       <use xlink:href="#DejaVuSans-79" x="336.072266"/>
       <use xlink:href="#DejaVuSans-6c" x="395.251953"/>
       <use xlink:href="#DejaVuSans-76" x="423.035156"/>
       <use xlink:href="#DejaVuSans-61" x="482.214844"/>
       <use xlink:href="#DejaVuSans-6e" x="543.494141"/>
       <use xlink:href="#DejaVuSans-69" x="606.873047"/>
       <use xlink:href="#DejaVuSans-61" x="634.65625"/>
       <use xlink:href="#DejaVuSans-5d" x="695.935547"/>
      </g>
     </g>
    </g>
    <g id="ytick_7">
     <g id="text_12">
      <!-- [Oregon] -->
      <g transform="translate(6.933125 251.393977) scale(0.09 -0.09)">
       <defs>
        <path id="DejaVuSans-4f" d="M 2522 4238 
Q 1834 4238 1429 3725 
Q 1025 3213 1025 2328 
Q 1025 1447 1429 934 
Q 1834 422 2522 422 
Q 3209 422 3611 934 
Q 4013 1447 4013 2328 
Q 4013 3213 3611 3725 
Q 3209 4238 2522 4238 
z
M 2522 4750 
Q 3503 4750 4090 4092 
Q 4678 3434 4678 2328 
Q 4678 1225 4090 567 
Q 3503 -91 2522 -91 
Q 1538 -91 948 565 
Q 359 1222 359 2328 
Q 359 3434 948 4092 
Q 1538 4750 2522 4750 
z
" transform="scale(0.015625)"/>
       </defs>
       <use xlink:href="#DejaVuSans-5b"/>
       <use xlink:href="#DejaVuSans-4f" x="39.013672"/>
       <use xlink:href="#DejaVuSans-72" x="117.724609"/>
       <use xlink:href="#DejaVuSans-65" x="156.587891"/>
       <use xlink:href="#DejaVuSans-67" x="218.111328"/>
       <use xlink:href="#DejaVuSans-6f" x="281.587891"/>
       <use xlink:href="#DejaVuSans-6e" x="342.769531"/>
       <use xlink:href="#DejaVuSans-5d" x="406.148438"/>
      </g>
     </g>
    </g>
    <g id="ytick_8">
     <g id="text_13">
      <!-- [Oklahoma] -->
      <g transform="translate(-5.827188 233.475998) scale(0.09 -0.09)">
       <defs>
        <path id="DejaVuSans-6b" d="M 581 4863 
L 1159 4863 
L 1159 1991 
L 2875 3500 
L 3609 3500 
L 1753 1863 
L 3688 0 
L 2938 0 
L 1159 1709 
L 1159 0 
L 581 0 
L 581 4863 
z
" transform="scale(0.015625)"/>
       </defs>
       <use xlink:href="#DejaVuSans-5b"/>
       <use xlink:href="#DejaVuSans-4f" x="39.013672"/>
       <use xlink:href="#DejaVuSans-6b" x="117.724609"/>
       <use xlink:href="#DejaVuSans-6c" x="175.634766"/>
       <use xlink:href="#DejaVuSans-61" x="203.417969"/>
       <use xlink:href="#DejaVuSans-68" x="264.697266"/>
       <use xlink:href="#DejaVuSans-6f" x="328.076172"/>
       <use xlink:href="#DejaVuSans-6d" x="389.257812"/>
       <use xlink:href="#DejaVuSans-61" x="486.669922"/>
       <use xlink:href="#DejaVuSans-5d" x="547.949219"/>
      </g>
     </g>
    </g>
    <g id="ytick_9">
     <g id="text_14">
      <!-- [New York] -->
      <g transform="translate(-1.237187 215.558019) scale(0.09 -0.09)">
       <defs>
        <path id="DejaVuSans-4e" d="M 628 4666 
L 1478 4666 
L 3547 763 
L 3547 4666 
L 4159 4666 
L 4159 0 
L 3309 0 
L 1241 3903 
L 1241 0 
L 628 0 
L 628 4666 
z
" transform="scale(0.015625)"/>
        <path id="DejaVuSans-77" d="M 269 3500 
L 844 3500 
L 1563 769 
L 2278 3500 
L 2956 3500 
L 3675 769 
L 4391 3500 
L 4966 3500 
L 4050 0 
L 3372 0 
L 2619 2869 
L 1863 0 
L 1184 0 
L 269 3500 
z
" transform="scale(0.015625)"/>
        <path id="DejaVuSans-59" d="M -13 4666 
L 666 4666 
L 1959 2747 
L 3244 4666 
L 3922 4666 
L 2272 2222 
L 2272 0 
L 1638 0 
L 1638 2222 
L -13 4666 
z
" transform="scale(0.015625)"/>
       </defs>
       <use xlink:href="#DejaVuSans-5b"/>
       <use xlink:href="#DejaVuSans-4e" x="39.013672"/>
       <use xlink:href="#DejaVuSans-65" x="113.818359"/>
       <use xlink:href="#DejaVuSans-77" x="175.341797"/>
       <use xlink:href="#DejaVuSans-20" x="257.128906"/>
       <use xlink:href="#DejaVuSans-59" x="288.916016"/>
       <use xlink:href="#DejaVuSans-6f" x="336.75"/>
       <use xlink:href="#DejaVuSans-72" x="397.931641"/>
       <use xlink:href="#DejaVuSans-6b" x="439.044922"/>
       <use xlink:href="#DejaVuSans-5d" x="496.955078"/>
      </g>
     </g>
    </g>
    <g id="ytick_10">
     <g id="text_15">
      <!-- [Missouri] -->
      <g transform="translate(2.923906 197.640039) scale(0.09 -0.09)">
       <defs>
        <path id="DejaVuSans-4d" d="M 628 4666 
L 1569 4666 
L 2759 1491 
L 3956 4666 
L 4897 4666 
L 4897 0 
L 4281 0 
L 4281 4097 
L 3078 897 
L 2444 897 
L 1241 4097 
L 1241 0 
L 628 0 
L 628 4666 
z
" transform="scale(0.015625)"/>
       </defs>
       <use xlink:href="#DejaVuSans-5b"/>
       <use xlink:href="#DejaVuSans-4d" x="39.013672"/>
       <use xlink:href="#DejaVuSans-69" x="125.292969"/>
       <use xlink:href="#DejaVuSans-73" x="153.076172"/>
       <use xlink:href="#DejaVuSans-73" x="205.175781"/>
       <use xlink:href="#DejaVuSans-6f" x="257.275391"/>
       <use xlink:href="#DejaVuSans-75" x="318.457031"/>
       <use xlink:href="#DejaVuSans-72" x="381.835938"/>
       <use xlink:href="#DejaVuSans-69" x="422.949219"/>
       <use xlink:href="#DejaVuSans-5d" x="450.732422"/>
      </g>
     </g>
    </g>
    <g id="ytick_11">
     <g id="text_16">
      <!-- [Minnesota] -->
      <g transform="translate(-6.472656 179.72206) scale(0.09 -0.09)">
       <use xlink:href="#DejaVuSans-5b"/>
       <use xlink:href="#DejaVuSans-4d" x="39.013672"/>
       <use xlink:href="#DejaVuSans-69" x="125.292969"/>
       <use xlink:href="#DejaVuSans-6e" x="153.076172"/>
       <use xlink:href="#DejaVuSans-6e" x="216.455078"/>
       <use xlink:href="#DejaVuSans-65" x="279.833984"/>
       <use xlink:href="#DejaVuSans-73" x="341.357422"/>
       <use xlink:href="#DejaVuSans-6f" x="393.457031"/>
       <use xlink:href="#DejaVuSans-74" x="454.638672"/>
       <use xlink:href="#DejaVuSans-61" x="493.847656"/>
       <use xlink:href="#DejaVuSans-5d" x="555.126953"/>
      </g>
     </g>
    </g>
    <g id="ytick_12">
     <g id="text_17">
      <!-- [Michigan] -->
      <g transform="translate(-0.37375 161.80408) scale(0.09 -0.09)">
       <use xlink:href="#DejaVuSans-5b"/>
       <use xlink:href="#DejaVuSans-4d" x="39.013672"/>
       <use xlink:href="#DejaVuSans-69" x="125.292969"/>
       <use xlink:href="#DejaVuSans-63" x="153.076172"/>
       <use xlink:href="#DejaVuSans-68" x="208.056641"/>
       <use xlink:href="#DejaVuSans-69" x="271.435547"/>
       <use xlink:href="#DejaVuSans-67" x="299.21875"/>
       <use xlink:href="#DejaVuSans-61" x="362.695312"/>
       <use xlink:href="#DejaVuSans-6e" x="423.974609"/>
       <use xlink:href="#DejaVuSans-5d" x="487.353516"/>
      </g>
     </g>
    </g>
    <g id="ytick_13">
     <g id="text_18">
      <!-- [Maryland] -->
      <g transform="translate(-1.763125 143.886101) scale(0.09 -0.09)">
       <defs>
        <path id="DejaVuSans-64" d="M 2906 2969 
L 2906 4863 
L 3481 4863 
L 3481 0 
L 2906 0 
L 2906 525 
Q 2725 213 2448 61 
Q 2172 -91 1784 -91 
Q 1150 -91 751 415 
Q 353 922 353 1747 
Q 353 2572 751 3078 
Q 1150 3584 1784 3584 
Q 2172 3584 2448 3432 
Q 2725 3281 2906 2969 
z
M 947 1747 
Q 947 1113 1208 752 
Q 1469 391 1925 391 
Q 2381 391 2643 752 
Q 2906 1113 2906 1747 
Q 2906 2381 2643 2742 
Q 2381 3103 1925 3103 
Q 1469 3103 1208 2742 
Q 947 2381 947 1747 
z
" transform="scale(0.015625)"/>
       </defs>
       <use xlink:href="#DejaVuSans-5b"/>
       <use xlink:href="#DejaVuSans-4d" x="39.013672"/>
       <use xlink:href="#DejaVuSans-61" x="125.292969"/>
       <use xlink:href="#DejaVuSans-72" x="186.572266"/>
       <use xlink:href="#DejaVuSans-79" x="227.685547"/>
       <use xlink:href="#DejaVuSans-6c" x="286.865234"/>
       <use xlink:href="#DejaVuSans-61" x="314.648438"/>
       <use xlink:href="#DejaVuSans-6e" x="375.927734"/>
       <use xlink:href="#DejaVuSans-64" x="439.306641"/>
       <use xlink:href="#DejaVuSans-5d" x="502.783203"/>
      </g>
     </g>
    </g>
    <g id="ytick_14">
     <g id="text_19">
      <!-- [Florida] -->
      <g transform="translate(9.364531 125.968122) scale(0.09 -0.09)">
       <defs>
        <path id="DejaVuSans-46" d="M 628 4666 
L 3309 4666 
L 3309 4134 
L 1259 4134 
L 1259 2759 
L 3109 2759 
L 3109 2228 
L 1259 2228 
L 1259 0 
L 628 0 
L 628 4666 
z
" transform="scale(0.015625)"/>
       </defs>
       <use xlink:href="#DejaVuSans-5b"/>
       <use xlink:href="#DejaVuSans-46" x="39.013672"/>
       <use xlink:href="#DejaVuSans-6c" x="96.533203"/>
       <use xlink:href="#DejaVuSans-6f" x="124.316406"/>
       <use xlink:href="#DejaVuSans-72" x="185.498047"/>
       <use xlink:href="#DejaVuSans-69" x="226.611328"/>
       <use xlink:href="#DejaVuSans-64" x="254.394531"/>
       <use xlink:href="#DejaVuSans-61" x="317.871094"/>
       <use xlink:href="#DejaVuSans-5d" x="379.150391"/>
      </g>
     </g>
    </g>
    <g id="ytick_15">
     <g id="text_20">
      <!-- [Connecticut] -->
      <g transform="translate(-13.917344 108.050142) scale(0.09 -0.09)">
       <use xlink:href="#DejaVuSans-5b"/>
       <use xlink:href="#DejaVuSans-43" x="39.013672"/>
       <use xlink:href="#DejaVuSans-6f" x="108.837891"/>
       <use xlink:href="#DejaVuSans-6e" x="170.019531"/>
       <use xlink:href="#DejaVuSans-6e" x="233.398438"/>
       <use xlink:href="#DejaVuSans-65" x="296.777344"/>
       <use xlink:href="#DejaVuSans-63" x="358.300781"/>
       <use xlink:href="#DejaVuSans-74" x="413.28125"/>
       <use xlink:href="#DejaVuSans-69" x="452.490234"/>
       <use xlink:href="#DejaVuSans-63" x="480.273438"/>
       <use xlink:href="#DejaVuSans-75" x="535.253906"/>
       <use xlink:href="#DejaVuSans-74" x="598.632812"/>
       <use xlink:href="#DejaVuSans-5d" x="637.841797"/>
      </g>
     </g>
    </g>
    <g id="ytick_16">
     <g id="text_21">
      <!-- [Colorado] -->
      <g transform="translate(-0.257031 90.132163) scale(0.09 -0.09)">
       <use xlink:href="#DejaVuSans-5b"/>
       <use xlink:href="#DejaVuSans-43" x="39.013672"/>
       <use xlink:href="#DejaVuSans-6f" x="108.837891"/>
       <use xlink:href="#DejaVuSans-6c" x="170.019531"/>
       <use xlink:href="#DejaVuSans-6f" x="197.802734"/>
       <use xlink:href="#DejaVuSans-72" x="258.984375"/>
       <use xlink:href="#DejaVuSans-61" x="300.097656"/>
       <use xlink:href="#DejaVuSans-64" x="361.376953"/>
       <use xlink:href="#DejaVuSans-6f" x="424.853516"/>
       <use xlink:href="#DejaVuSans-5d" x="486.035156"/>
      </g>
     </g>
    </g>
    <g id="ytick_17">
     <g id="text_22">
      <!-- Intercept [California] -->
      <g transform="translate(-46.270938 72.214183) scale(0.09 -0.09)">
       <defs>
        <path id="DejaVuSans-49" d="M 628 4666 
L 1259 4666 
L 1259 0 
L 628 0 
L 628 4666 
z
" transform="scale(0.015625)"/>
        <path id="DejaVuSans-70" d="M 1159 525 
L 1159 -1331 
L 581 -1331 
L 581 3500 
L 1159 3500 
L 1159 2969 
Q 1341 3281 1617 3432 
Q 1894 3584 2278 3584 
Q 2916 3584 3314 3078 
Q 3713 2572 3713 1747 
Q 3713 922 3314 415 
Q 2916 -91 2278 -91 
Q 1894 -91 1617 61 
Q 1341 213 1159 525 
z
M 3116 1747 
Q 3116 2381 2855 2742 
Q 2594 3103 2138 3103 
Q 1681 3103 1420 2742 
Q 1159 2381 1159 1747 
Q 1159 1113 1420 752 
Q 1681 391 2138 391 
Q 2594 391 2855 752 
Q 3116 1113 3116 1747 
z
" transform="scale(0.015625)"/>
        <path id="DejaVuSans-66" d="M 2375 4863 
L 2375 4384 
L 1825 4384 
Q 1516 4384 1395 4259 
Q 1275 4134 1275 3809 
L 1275 3500 
L 2222 3500 
L 2222 3053 
L 1275 3053 
L 1275 0 
L 697 0 
L 697 3053 
L 147 3053 
L 147 3500 
L 697 3500 
L 697 3744 
Q 697 4328 969 4595 
Q 1241 4863 1831 4863 
L 2375 4863 
z
" transform="scale(0.015625)"/>
       </defs>
       <use xlink:href="#DejaVuSans-49"/>
       <use xlink:href="#DejaVuSans-6e" x="29.492188"/>
       <use xlink:href="#DejaVuSans-74" x="92.871094"/>
       <use xlink:href="#DejaVuSans-65" x="132.080078"/>
       <use xlink:href="#DejaVuSans-72" x="193.603516"/>
       <use xlink:href="#DejaVuSans-63" x="232.466797"/>
       <use xlink:href="#DejaVuSans-65" x="287.447266"/>
       <use xlink:href="#DejaVuSans-70" x="348.970703"/>
       <use xlink:href="#DejaVuSans-74" x="412.447266"/>
       <use xlink:href="#DejaVuSans-20" x="451.65625"/>
       <use xlink:href="#DejaVuSans-5b" x="483.443359"/>
       <use xlink:href="#DejaVuSans-43" x="522.457031"/>
       <use xlink:href="#DejaVuSans-61" x="592.28125"/>
       <use xlink:href="#DejaVuSans-6c" x="653.560547"/>
       <use xlink:href="#DejaVuSans-69" x="681.34375"/>
       <use xlink:href="#DejaVuSans-66" x="709.126953"/>
       <use xlink:href="#DejaVuSans-6f" x="744.332031"/>
       <use xlink:href="#DejaVuSans-72" x="805.513672"/>
       <use xlink:href="#DejaVuSans-6e" x="844.876953"/>
       <use xlink:href="#DejaVuSans-69" x="908.255859"/>
       <use xlink:href="#DejaVuSans-61" x="936.039062"/>
       <use xlink:href="#DejaVuSans-5d" x="997.318359"/>
      </g>
     </g>
    </g>
   </g>
   <g id="LineCollection_1">
    <path d="M 263.998701 355.482557 
L 369.164945 355.482557 
" clip-path="url(#p584d1b9e65)" style="fill: none; stroke: #1f77b4; stroke-width: 0.964286"/>
   </g>
   <g id="LineCollection_2">
    <path d="M 296.127304 355.482557 
L 333.708464 355.482557 
" clip-path="url(#p584d1b9e65)" style="fill: none; stroke: #1f77b4; stroke-width: 1.928571"/>
   </g>
   <g id="line2d_6">
    <defs>
     <path id="mc77ac550b5" d="M 0 1.446429 
C 0.383597 1.446429 0.751535 1.294024 1.022779 1.022779 
C 1.294024 0.751535 1.446429 0.383597 1.446429 0 
C 1.446429 -0.383597 1.294024 -0.751535 1.022779 -1.022779 
C 0.751535 -1.294024 0.383597 -1.446429 0 -1.446429 
C -0.383597 -1.446429 -0.751535 -1.294024 -1.022779 -1.022779 
C -1.294024 -0.751535 -1.446429 -0.383597 -1.446429 0 
C -1.446429 0.383597 -1.294024 0.751535 -1.022779 1.022779 
C -0.751535 1.294024 -0.383597 1.446429 0 1.446429 
z
" style="stroke: #1f77b4"/>
    </defs>
    <g clip-path="url(#p584d1b9e65)">
     <use xlink:href="#mc77ac550b5" x="314.585119" y="355.482557" style="fill: #ffffff; stroke: #1f77b4"/>
    </g>
   </g>
   <g id="LineCollection_3">
    <path d="M 159.022713 337.564577 
L 260.91934 337.564577 
" clip-path="url(#p584d1b9e65)" style="fill: none; stroke: #1f77b4; stroke-width: 0.964286"/>
   </g>
   <g id="LineCollection_4">
    <path d="M 194.167511 337.564577 
L 229.470066 337.564577 
" clip-path="url(#p584d1b9e65)" style="fill: none; stroke: #1f77b4; stroke-width: 1.928571"/>
   </g>
   <g id="line2d_7">
    <g clip-path="url(#p584d1b9e65)">
     <use xlink:href="#mc77ac550b5" x="211.945497" y="337.564577" style="fill: #ffffff; stroke: #1f77b4"/>
    </g>
   </g>
   <g id="LineCollection_5">
    <path d="M 256.173523 319.646598 
L 355.198706 319.646598 
" clip-path="url(#p584d1b9e65)" style="fill: none; stroke: #1f77b4; stroke-width: 0.964286"/>
   </g>
   <g id="LineCollection_6">
    <path d="M 287.14352 319.646598 
L 322.489033 319.646598 
" clip-path="url(#p584d1b9e65)" style="fill: none; stroke: #1f77b4; stroke-width: 1.928571"/>
   </g>
   <g id="line2d_8">
    <g clip-path="url(#p584d1b9e65)">
     <use xlink:href="#mc77ac550b5" x="304.635799" y="319.646598" style="fill: #ffffff; stroke: #1f77b4"/>
    </g>
   </g>
   <g id="LineCollection_7">
    <path d="M 191.712203 301.728619 
L 271.357834 301.728619 
" clip-path="url(#p584d1b9e65)" style="fill: none; stroke: #1f77b4; stroke-width: 0.964286"/>
   </g>
   <g id="LineCollection_8">
    <path d="M 218.143391 301.728619 
L 245.627236 301.728619 
" clip-path="url(#p584d1b9e65)" style="fill: none; stroke: #1f77b4; stroke-width: 1.928571"/>
   </g>
   <g id="line2d_9">
    <g clip-path="url(#p584d1b9e65)">
     <use xlink:href="#mc77ac550b5" x="232.192048" y="301.728619" style="fill: #ffffff; stroke: #1f77b4"/>
    </g>
   </g>
   <g id="LineCollection_9">
    <path d="M 213.982224 283.810639 
L 314.939847 283.810639 
" clip-path="url(#p584d1b9e65)" style="fill: none; stroke: #1f77b4; stroke-width: 0.964286"/>
   </g>
   <g id="LineCollection_10">
    <path d="M 246.775065 283.810639 
L 281.67803 283.810639 
" clip-path="url(#p584d1b9e65)" style="fill: none; stroke: #1f77b4; stroke-width: 1.928571"/>
   </g>
   <g id="line2d_10">
    <g clip-path="url(#p584d1b9e65)">
     <use xlink:href="#mc77ac550b5" x="264.119223" y="283.810639" style="fill: #ffffff; stroke: #1f77b4"/>
    </g>
   </g>
   <g id="LineCollection_11">
    <path d="M 155.375947 265.89266 
L 255.498357 265.89266 
" clip-path="url(#p584d1b9e65)" style="fill: none; stroke: #1f77b4; stroke-width: 0.964286"/>
   </g>
   <g id="LineCollection_12">
    <path d="M 187.303868 265.89266 
L 222.504227 265.89266 
" clip-path="url(#p584d1b9e65)" style="fill: none; stroke: #1f77b4; stroke-width: 1.928571"/>
   </g>
   <g id="line2d_11">
    <g clip-path="url(#p584d1b9e65)">
     <use xlink:href="#mc77ac550b5" x="205.351976" y="265.89266" style="fill: #ffffff; stroke: #1f77b4"/>
    </g>
   </g>
   <g id="LineCollection_13">
    <path d="M 267.694804 247.97468 
L 373.581818 247.97468 
" clip-path="url(#p584d1b9e65)" style="fill: none; stroke: #1f77b4; stroke-width: 0.964286"/>
   </g>
   <g id="LineCollection_14">
    <path d="M 303.304512 247.97468 
L 340.350706 247.97468 
" clip-path="url(#p584d1b9e65)" style="fill: none; stroke: #1f77b4; stroke-width: 1.928571"/>
   </g>
   <g id="line2d_12">
    <g clip-path="url(#p584d1b9e65)">
     <use xlink:href="#mc77ac550b5" x="321.644846" y="247.97468" style="fill: #ffffff; stroke: #1f77b4"/>
    </g>
   </g>
   <g id="LineCollection_15">
    <path d="M 69.218182 230.056701 
L 179.934512 230.056701 
" clip-path="url(#p584d1b9e65)" style="fill: none; stroke: #1f77b4; stroke-width: 0.964286"/>
   </g>
   <g id="LineCollection_16">
    <path d="M 104.875028 230.056701 
L 144.761412 230.056701 
" clip-path="url(#p584d1b9e65)" style="fill: none; stroke: #1f77b4; stroke-width: 1.928571"/>
   </g>
   <g id="line2d_13">
    <g clip-path="url(#p584d1b9e65)">
     <use xlink:href="#mc77ac550b5" x="125.525457" y="230.056701" style="fill: #ffffff; stroke: #1f77b4"/>
    </g>
   </g>
   <g id="LineCollection_17">
    <path d="M 190.383343 212.138722 
L 293.907848 212.138722 
" clip-path="url(#p584d1b9e65)" style="fill: none; stroke: #1f77b4; stroke-width: 0.964286"/>
   </g>
   <g id="LineCollection_18">
    <path d="M 224.771126 212.138722 
L 260.123873 212.138722 
" clip-path="url(#p584d1b9e65)" style="fill: none; stroke: #1f77b4; stroke-width: 1.928571"/>
   </g>
   <g id="line2d_14">
    <g clip-path="url(#p584d1b9e65)">
     <use xlink:href="#mc77ac550b5" x="242.163606" y="212.138722" style="fill: #ffffff; stroke: #1f77b4"/>
    </g>
   </g>
   <g id="LineCollection_19">
    <path d="M 122.086077 194.220742 
L 216.998528 194.220742 
" clip-path="url(#p584d1b9e65)" style="fill: none; stroke: #1f77b4; stroke-width: 0.964286"/>
   </g>
   <g id="LineCollection_20">
    <path d="M 155.713834 194.220742 
L 189.751314 194.220742 
" clip-path="url(#p584d1b9e65)" style="fill: none; stroke: #1f77b4; stroke-width: 1.928571"/>
   </g>
   <g id="line2d_15">
    <g clip-path="url(#p584d1b9e65)">
     <use xlink:href="#mc77ac550b5" x="173.205771" y="194.220742" style="fill: #ffffff; stroke: #1f77b4"/>
    </g>
   </g>
   <g id="LineCollection_21">
    <path d="M 195.900208 176.302763 
L 283.307231 176.302763 
" clip-path="url(#p584d1b9e65)" style="fill: none; stroke: #1f77b4; stroke-width: 0.964286"/>
   </g>
   <g id="LineCollection_22">
    <path d="M 223.783903 176.302763 
L 255.417815 176.302763 
" clip-path="url(#p584d1b9e65)" style="fill: none; stroke: #1f77b4; stroke-width: 1.928571"/>
   </g>
   <g id="line2d_16">
    <g clip-path="url(#p584d1b9e65)">
     <use xlink:href="#mc77ac550b5" x="239.85447" y="176.302763" style="fill: #ffffff; stroke: #1f77b4"/>
    </g>
   </g>
   <g id="LineCollection_23">
    <path d="M 194.159904 158.384784 
L 278.237893 158.384784 
" clip-path="url(#p584d1b9e65)" style="fill: none; stroke: #1f77b4; stroke-width: 0.964286"/>
   </g>
   <g id="LineCollection_24">
    <path d="M 222.104474 158.384784 
L 251.589899 158.384784 
" clip-path="url(#p584d1b9e65)" style="fill: none; stroke: #1f77b4; stroke-width: 1.928571"/>
   </g>
   <g id="line2d_17">
    <g clip-path="url(#p584d1b9e65)">
     <use xlink:href="#mc77ac550b5" x="236.645774" y="158.384784" style="fill: #ffffff; stroke: #1f77b4"/>
    </g>
   </g>
   <g id="LineCollection_25">
    <path d="M 122.09581 140.466804 
L 219.09643 140.466804 
" clip-path="url(#p584d1b9e65)" style="fill: none; stroke: #1f77b4; stroke-width: 0.964286"/>
   </g>
   <g id="LineCollection_26">
    <path d="M 152.835969 140.466804 
L 188.230262 140.466804 
" clip-path="url(#p584d1b9e65)" style="fill: none; stroke: #1f77b4; stroke-width: 1.928571"/>
   </g>
   <g id="line2d_18">
    <g clip-path="url(#p584d1b9e65)">
     <use xlink:href="#mc77ac550b5" x="171.240543" y="140.466804" style="fill: #ffffff; stroke: #1f77b4"/>
    </g>
   </g>
   <g id="LineCollection_27">
    <path d="M 156.093059 122.548825 
L 237.668581 122.548825 
" clip-path="url(#p584d1b9e65)" style="fill: none; stroke: #1f77b4; stroke-width: 0.964286"/>
   </g>
   <g id="LineCollection_28">
    <path d="M 183.131993 122.548825 
L 213.010709 122.548825 
" clip-path="url(#p584d1b9e65)" style="fill: none; stroke: #1f77b4; stroke-width: 1.928571"/>
   </g>
   <g id="line2d_19">
    <g clip-path="url(#p584d1b9e65)">
     <use xlink:href="#mc77ac550b5" x="198.244673" y="122.548825" style="fill: #ffffff; stroke: #1f77b4"/>
    </g>
   </g>
   <g id="LineCollection_29">
    <path d="M 260.733147 104.630845 
L 363.4284 104.630845 
" clip-path="url(#p584d1b9e65)" style="fill: none; stroke: #1f77b4; stroke-width: 0.964286"/>
   </g>
   <g id="LineCollection_30">
    <path d="M 291.111865 104.630845 
L 327.132241 104.630845 
" clip-path="url(#p584d1b9e65)" style="fill: none; stroke: #1f77b4; stroke-width: 1.928571"/>
   </g>
   <g id="line2d_20">
    <g clip-path="url(#p584d1b9e65)">
     <use xlink:href="#mc77ac550b5" x="308.6331" y="104.630845" style="fill: #ffffff; stroke: #1f77b4"/>
    </g>
   </g>
   <g id="LineCollection_31">
    <path d="M 190.32286 86.712866 
L 280.706782 86.712866 
" clip-path="url(#p584d1b9e65)" style="fill: none; stroke: #1f77b4; stroke-width: 0.964286"/>
   </g>
   <g id="LineCollection_32">
    <path d="M 219.87424 86.712866 
L 252.031229 86.712866 
" clip-path="url(#p584d1b9e65)" style="fill: none; stroke: #1f77b4; stroke-width: 1.928571"/>
   </g>
   <g id="line2d_21">
    <g clip-path="url(#p584d1b9e65)">
     <use xlink:href="#mc77ac550b5" x="235.826179" y="86.712866" style="fill: #ffffff; stroke: #1f77b4"/>
    </g>
   </g>
   <g id="LineCollection_33">
    <path d="M 218.05967 68.794887 
L 290.591334 68.794887 
" clip-path="url(#p584d1b9e65)" style="fill: none; stroke: #1f77b4; stroke-width: 0.964286"/>
   </g>
   <g id="LineCollection_34">
    <path d="M 239.950691 68.794887 
L 266.410188 68.794887 
" clip-path="url(#p584d1b9e65)" style="fill: none; stroke: #1f77b4; stroke-width: 1.928571"/>
   </g>
   <g id="line2d_22">
    <g clip-path="url(#p584d1b9e65)">
     <use xlink:href="#mc77ac550b5" x="252.930477" y="68.794887" style="fill: #ffffff; stroke: #1f77b4"/>
    </g>
   </g>
   <g id="patch_3">
    <path d="M 54 365.256 
L 388.8 365.256 
" style="fill: none; stroke: #000000; stroke-width: 0.8; stroke-linejoin: miter; stroke-linecap: square"/>
   </g>
   <g id="patch_4">
    <path d="M 54 49.248 
L 388.8 49.248 
" style="fill: none; stroke: #000000; stroke-width: 0.8; stroke-linejoin: miter; stroke-linecap: square"/>
   </g>
   <g id="text_23">
    <!-- unemployment model of crystallized cognition -->
    <g transform="translate(81.91125 43.248) scale(0.12 -0.12)">
     <defs>
      <path id="DejaVuSans-7a" d="M 353 3500 
L 3084 3500 
L 3084 2975 
L 922 459 
L 3084 459 
L 3084 0 
L 275 0 
L 275 525 
L 2438 3041 
L 353 3041 
L 353 3500 
z
" transform="scale(0.015625)"/>
     </defs>
     <use xlink:href="#DejaVuSans-75"/>
     <use xlink:href="#DejaVuSans-6e" x="63.378906"/>
     <use xlink:href="#DejaVuSans-65" x="126.757812"/>
     <use xlink:href="#DejaVuSans-6d" x="188.28125"/>
     <use xlink:href="#DejaVuSans-70" x="285.693359"/>
     <use xlink:href="#DejaVuSans-6c" x="349.169922"/>
     <use xlink:href="#DejaVuSans-6f" x="376.953125"/>
     <use xlink:href="#DejaVuSans-79" x="438.134766"/>
     <use xlink:href="#DejaVuSans-6d" x="497.314453"/>
     <use xlink:href="#DejaVuSans-65" x="594.726562"/>
     <use xlink:href="#DejaVuSans-6e" x="656.25"/>
     <use xlink:href="#DejaVuSans-74" x="719.628906"/>
     <use xlink:href="#DejaVuSans-20" x="758.837891"/>
     <use xlink:href="#DejaVuSans-6d" x="790.625"/>
     <use xlink:href="#DejaVuSans-6f" x="888.037109"/>
     <use xlink:href="#DejaVuSans-64" x="949.21875"/>
     <use xlink:href="#DejaVuSans-65" x="1012.695312"/>
     <use xlink:href="#DejaVuSans-6c" x="1074.21875"/>
     <use xlink:href="#DejaVuSans-20" x="1102.001953"/>
     <use xlink:href="#DejaVuSans-6f" x="1133.789062"/>
     <use xlink:href="#DejaVuSans-66" x="1194.970703"/>
     <use xlink:href="#DejaVuSans-20" x="1230.175781"/>
     <use xlink:href="#DejaVuSans-63" x="1261.962891"/>
     <use xlink:href="#DejaVuSans-72" x="1316.943359"/>
     <use xlink:href="#DejaVuSans-79" x="1358.056641"/>
     <use xlink:href="#DejaVuSans-73" x="1417.236328"/>
     <use xlink:href="#DejaVuSans-74" x="1469.335938"/>
     <use xlink:href="#DejaVuSans-61" x="1508.544922"/>
     <use xlink:href="#DejaVuSans-6c" x="1569.824219"/>
     <use xlink:href="#DejaVuSans-6c" x="1597.607422"/>
     <use xlink:href="#DejaVuSans-69" x="1625.390625"/>
     <use xlink:href="#DejaVuSans-7a" x="1653.173828"/>
     <use xlink:href="#DejaVuSans-65" x="1705.664062"/>
     <use xlink:href="#DejaVuSans-64" x="1767.1875"/>
     <use xlink:href="#DejaVuSans-20" x="1830.664062"/>
     <use xlink:href="#DejaVuSans-63" x="1862.451172"/>
     <use xlink:href="#DejaVuSans-6f" x="1917.431641"/>
     <use xlink:href="#DejaVuSans-67" x="1978.613281"/>
     <use xlink:href="#DejaVuSans-6e" x="2042.089844"/>
     <use xlink:href="#DejaVuSans-69" x="2105.46875"/>
     <use xlink:href="#DejaVuSans-74" x="2133.251953"/>
     <use xlink:href="#DejaVuSans-69" x="2172.460938"/>
     <use xlink:href="#DejaVuSans-6f" x="2200.244141"/>
     <use xlink:href="#DejaVuSans-6e" x="2261.425781"/>
    </g>
   </g>
  </g>
 </g>
 <defs>
  <clipPath id="p584d1b9e65">
   <rect x="54" y="49.248" width="334.8" height="316.008"/>
  </clipPath>
 </defs>
</svg>
